<svg xmlns:xlink="http://www.w3.org/1999/xlink" xmlns="http://www.w3.org/2000/svg" width="374" height="386" viewBox="0 0 374 386" fill="none">
<g clip-path="url(#clip0_456_14403)">
<rect x="0.25" y="69.582" width="356.772" height="446.886" rx="48.7585" transform="rotate(-45 0.25 69.582)" fill="white"/>
<rect x="33.7129" y="68.5664" width="45" height="45" rx="22.5" transform="rotate(-45 33.7129 68.5664)" fill="#D07216"/>
<path d="M72.8885 74.7395L61.8869 75.0148L60.0923 73.2203L63.1002 70.2124C64.1062 69.2064 64.6364 68.2411 64.6908 67.3167C64.752 66.3854 64.3645 65.5018 63.5284 64.6657L63.5081 64.6453C62.6448 63.782 61.7543 63.3878 60.8367 63.4625C59.9258 63.5305 58.9674 64.0675 57.9613 65.0735L54.9535 68.0814L53.5362 66.6641L57.1253 63.0751C58.1041 62.0962 59.0965 61.4165 60.1025 61.0358C61.1086 60.6416 62.101 60.56 63.0798 60.7911C64.0586 61.0087 64.9899 61.5593 65.8736 62.4429L65.894 62.4633C66.764 63.3334 67.3282 64.2782 67.5865 65.2978C67.8448 66.3039 67.7904 67.3371 67.4234 68.3975C67.0631 69.4511 66.3766 70.4843 65.3638 71.4971L63.8547 73.0061L63.661 72.0783L75.927 71.701L72.8885 74.7395ZM58.0939 71.2218L56.9417 70.0697L66.781 60.2304L67.9332 61.3825L58.0939 71.2218ZM54.3315 67.4594L53.1488 66.2767L62.9881 56.4374L64.1708 57.6201L54.3315 67.4594Z" fill="white"/>
<rect x="95.2305" y="7.04883" width="45" height="45" rx="22.5" transform="rotate(-45 95.2305 7.04883)" fill="#FF1744"/>
<path d="M129.68 -2.40591L131.977 -0.108916L125.128 6.7403L129.889 11.5013C130.279 11.8911 130.627 12.1278 130.933 12.2113C131.226 12.2809 131.567 12.1208 131.957 11.731C132.277 11.4108 132.541 11.0489 132.75 10.6452C132.945 10.2275 133.084 9.80991 133.168 9.39228C133.237 8.96072 133.23 8.55005 133.147 8.16026C133.063 7.77046 132.896 7.45028 132.646 7.1997C132.52 7.07441 132.346 7.01176 132.124 7.01176C131.901 7.01176 131.629 7.17185 131.309 7.49204C131.059 7.74262 130.857 7.98624 130.704 8.2229L128.24 6.42707C128.421 6.10688 128.65 5.77974 128.929 5.44563C129.221 5.0976 129.534 4.75653 129.868 4.42242C130.69 3.60107 131.539 3.12775 132.416 3.00246C133.293 2.87717 134.128 3.21128 134.922 4.00479C135.673 4.75653 136.168 5.59876 136.404 6.53148C136.641 7.4642 136.669 8.41084 136.488 9.3714C136.307 10.332 135.98 11.2577 135.506 12.1487C135.033 13.0118 134.476 13.7635 133.836 14.4039C133.251 14.9886 132.687 15.4132 132.144 15.6777C131.615 15.9283 131.121 16.0605 130.662 16.0744C130.356 16.0744 130.035 16.0466 129.701 15.9909C129.381 15.9213 129.005 15.7543 128.574 15.4897C128.156 15.2113 127.655 14.7798 127.07 14.1951L122.372 9.49669L120.618 11.2508L118.321 8.95376L129.68 -2.40591ZM114.708 2.25072C115.168 1.79132 115.627 1.44329 116.086 1.20663C116.546 0.969974 117.012 0.851645 117.485 0.851645C118.028 0.837723 118.613 0.990856 119.24 1.31104C119.866 1.63123 120.611 2.22288 121.474 3.08599L122.915 4.52683L120.158 7.28322L118.822 5.94679C118.474 5.59876 118.154 5.33426 117.861 5.15328C117.569 4.97231 117.284 4.90966 117.005 4.96535C116.713 5.00711 116.4 5.19505 116.066 5.52916C115.885 5.71013 115.711 5.92591 115.543 6.17649C115.39 6.41315 115.251 6.67765 115.126 6.97L112.328 5.75885C112.676 5.02103 113.024 4.39458 113.372 3.8795C113.706 3.35049 114.151 2.80757 114.708 2.25072Z" fill="white"/>
<rect x="96.6445" y="131.498" width="45" height="45" rx="22.5" transform="rotate(-45 96.6445 131.498)" fill="#D500F9"/>
<path d="M122.229 146.44C121.699 146.97 121.064 146.964 120.505 146.405L113.629 139.53C113.07 138.97 113.076 138.324 113.635 137.764C113.997 137.403 114.387 137.304 115.022 137.403L123.738 138.848L123.785 138.802L119.077 134.094C118.512 133.529 118.506 132.894 119.036 132.363C119.567 131.833 120.196 131.845 120.761 132.41L127.654 139.303C128.201 139.85 128.201 140.468 127.648 141.021C127.269 141.4 126.902 141.499 126.261 141.394L117.504 139.932L117.452 139.984L122.188 144.721C122.748 145.28 122.754 145.916 122.229 146.44ZM131.152 137.517C130.598 138.071 129.934 138.059 129.357 137.482L122.669 130.794C122.092 130.217 122.08 129.553 122.634 128.999L125.174 126.459C126.899 124.734 129.235 124.693 130.966 126.424C132.69 128.148 132.614 130.531 130.843 132.303L129.27 133.876L131.117 135.723C131.694 136.299 131.705 136.964 131.152 137.517ZM127.895 132.501L129.084 131.312C130.092 130.304 130.144 129.18 129.183 128.218C128.227 127.263 127.108 127.309 126.1 128.317L124.906 129.512L127.895 132.501ZM138.898 129.795C138.35 130.342 137.68 130.337 137.103 129.76L130.403 123.059C129.826 122.483 129.814 121.818 130.368 121.265L132.932 118.701C134.866 116.767 136.993 116.679 138.653 118.34C139.702 119.389 140.081 120.805 139.55 122.127L142.86 123.013C143.256 123.118 143.448 123.228 143.652 123.432C144.118 123.898 144.083 124.609 143.571 125.122C143.151 125.541 142.807 125.582 142.009 125.355L138.076 124.219L136.579 125.716L138.863 128C139.44 128.577 139.451 129.241 138.898 129.795ZM135.303 124.44L136.818 122.925C137.703 122.04 137.715 121.014 136.882 120.181C136.066 119.365 134.994 119.389 134.12 120.263L132.623 121.76L135.303 124.44Z" fill="white"/>
<rect x="158.164" y="69.9805" width="45" height="45" rx="22.5" transform="rotate(-45 158.164 69.9805)" fill="#34824F"/>
<path d="M196.86 76.8372C195.947 77.75 194.97 78.4298 193.927 78.8765C192.879 79.3167 191.843 79.4785 190.82 79.362C189.797 79.2455 188.862 78.8214 188.014 78.0899L187.868 77.9637L189.888 75.9438L190.014 76.0312C190.467 76.3549 190.962 76.5589 191.5 76.643C192.043 76.7207 192.62 76.643 193.228 76.41C193.837 76.164 194.478 75.7043 195.151 75.031C195.824 74.3578 196.281 73.7266 196.52 73.1375C196.766 72.5419 196.831 71.9981 196.714 71.5061C196.604 71.0076 196.361 70.5706 195.986 70.1951L195.976 70.1854C195.484 69.6934 194.921 69.4539 194.287 69.4669C193.646 69.4733 192.762 69.8261 191.636 70.5253L189.771 71.6906C188.755 72.3315 187.803 72.7717 186.916 73.0112C186.029 73.2508 185.204 73.2799 184.44 73.0986C183.676 72.9044 182.964 72.4771 182.304 71.8168L182.294 71.8071C181.524 71.0367 181.058 70.1628 180.896 69.1852C180.74 68.2012 180.863 67.1978 181.265 66.1749C181.666 65.1391 182.323 64.1648 183.236 63.252C184.136 62.3522 185.087 61.7048 186.091 61.3099C187.101 60.9085 188.098 60.7791 189.082 60.9215C190.059 61.0574 190.953 61.4782 191.762 62.1839L191.937 62.3198L189.907 64.3493L189.81 64.2717C189.331 63.8962 188.816 63.6793 188.266 63.6211C187.722 63.5563 187.169 63.6437 186.606 63.8832C186.049 64.1163 185.511 64.4918 184.994 65.0097C184.411 65.5923 184.01 66.1749 183.789 66.7576C183.569 67.3402 183.505 67.8775 183.595 68.3696C183.686 68.8616 183.896 69.2726 184.226 69.6028L184.246 69.6222C184.544 69.92 184.88 70.1207 185.256 70.2243C185.638 70.3214 186.081 70.3052 186.586 70.1757C187.098 70.0398 187.68 69.7679 188.334 69.36L190.208 68.185C191.788 67.1881 193.199 66.6443 194.442 66.5537C195.691 66.4566 196.834 66.9259 197.87 67.9617L197.88 67.9714C198.728 68.8195 199.22 69.7582 199.356 70.7875C199.498 71.8104 199.346 72.8494 198.899 73.9046C198.453 74.9469 197.773 75.9244 196.86 76.8372ZM197.909 79.0124L181.08 62.1839L182.168 61.0963L198.996 77.9248L197.909 79.0124Z" fill="white"/>
<rect x="219.684" y="8.46289" width="45" height="45" rx="22.5" transform="rotate(-45 219.684 8.46289)" fill="#D07216"/>
<path d="M258.859 14.636L247.858 14.9113L246.063 13.1167L249.071 10.1089C250.077 9.10286 250.607 8.13762 250.662 7.21317C250.723 6.28192 250.335 5.39825 249.499 4.56217L249.479 4.54177C248.615 3.6785 247.725 3.28425 246.807 3.35902C245.897 3.42699 244.938 3.96399 243.932 4.97001L240.924 7.97788L239.507 6.56062L243.096 2.97157C244.075 1.99273 245.067 1.31299 246.073 0.932332C247.079 0.53808 248.072 0.456511 249.051 0.687624C250.029 0.905142 250.961 1.45574 251.844 2.3394L251.865 2.3598C252.735 3.22987 253.299 4.17471 253.557 5.19433C253.816 6.20035 253.761 7.23356 253.394 8.29396C253.034 9.34757 252.347 10.3808 251.334 11.3936L249.825 12.9026L249.632 11.9748L261.898 11.5975L258.859 14.636ZM244.065 11.1183L242.912 9.96613L252.752 0.126835L253.904 1.279L244.065 11.1183ZM240.302 7.35592L239.119 6.17316L248.959 -3.66614L250.142 -2.48338L240.302 7.35592Z" fill="white"/>
<rect x="159.578" y="194.432" width="45" height="45" rx="22.5" transform="rotate(-45 159.578 194.432)" fill="#32867C"/>
<path d="M185.856 208.459C185.303 209.012 184.638 209.001 184.056 208.418L177.373 201.735C176.79 201.153 176.779 200.488 177.332 199.935C177.886 199.381 178.55 199.393 179.132 199.976L185.279 206.122L188.262 203.139C188.74 202.662 189.334 202.615 189.789 203.069C190.243 203.524 190.203 204.112 189.719 204.596L185.856 208.459ZM192.804 201.733C192.25 202.286 191.586 202.274 191.009 201.698L184.21 194.898C183.627 194.316 183.615 193.651 184.169 193.098C184.722 192.544 185.387 192.556 185.969 193.139L188.883 196.052L188.935 195.999L188.644 189.381C188.62 188.868 188.731 188.536 189.022 188.245C189.488 187.778 190.205 187.773 190.66 188.227C190.904 188.472 191.009 188.751 191.021 189.206L191.132 193.954L196.719 194.496C197.307 194.56 197.675 194.694 197.913 194.933C198.391 195.411 198.397 196.151 197.913 196.635C197.552 196.996 197.173 197.106 196.55 197.031L190.963 196.454L191.003 198.173L192.769 199.938C193.346 200.515 193.357 201.179 192.804 201.733ZM201.062 193.497C200.515 194.045 199.845 194.039 199.268 193.462L192.567 186.762C191.991 186.185 191.979 185.521 192.532 184.968L195.096 182.404C197.03 180.47 199.157 180.382 200.818 182.043C201.866 183.091 202.245 184.507 201.715 185.83L205.024 186.715C205.42 186.82 205.613 186.931 205.817 187.135C206.283 187.601 206.248 188.312 205.735 188.825C205.315 189.244 204.972 189.285 204.174 189.058L200.241 187.922L198.743 189.419L201.027 191.703C201.604 192.28 201.616 192.944 201.062 193.497ZM197.467 188.143L198.982 186.628C199.868 185.742 199.879 184.717 199.046 183.884C198.231 183.068 197.159 183.091 196.285 183.965L194.787 185.463L197.467 188.143Z" fill="white"/>
<rect x="221.098" y="132.914" width="45" height="45" rx="22.5" transform="rotate(-45 221.098 132.914)" fill="#651FFF"/>
<path d="M256.552 143.559C255.726 144.385 254.619 144.482 253.667 143.53L247.822 137.684L246.889 138.616C246.588 138.918 246.19 138.908 245.909 138.626C245.608 138.325 245.617 137.946 245.918 137.645L246.851 136.713L245.617 135.48L244.685 136.412C244.384 136.713 243.986 136.704 243.704 136.422C243.403 136.121 243.413 135.742 243.714 135.441L244.646 134.509L242.801 132.664C241.84 131.703 241.83 130.605 242.792 129.644L246.637 125.798C248.9 123.536 251.89 123.322 254.405 124.75L255.309 123.847C255.619 123.536 255.998 123.526 256.299 123.827C256.581 124.109 256.59 124.507 256.28 124.818L255.551 125.546C255.755 125.711 255.959 125.896 256.153 126.09C256.377 126.313 256.59 126.546 256.775 126.789L257.513 126.051C257.824 125.74 258.202 125.73 258.503 126.032C258.785 126.313 258.795 126.711 258.484 127.022L257.561 127.945C259.008 130.518 258.736 133.548 256.416 135.868L254.066 138.218L256.522 140.675C257.474 141.627 257.377 142.734 256.552 143.559ZM246.307 130.46L247.501 131.654L251.405 127.75C250.191 127.372 249.016 127.75 248.045 128.721L246.307 130.46ZM253.298 128.964C253.095 128.76 252.891 128.576 252.677 128.42L248.472 132.625L249.706 133.858L253.91 129.654C253.726 129.43 253.532 129.197 253.298 128.964ZM251.92 136.072L253.648 134.344C254.629 133.363 255.008 132.169 254.59 130.916L250.677 134.829L251.92 136.072Z" fill="white"/>
<rect x="282.613" y="71.3945" width="45" height="45" rx="22.5" transform="rotate(-45 282.613 71.3945)" fill="#D500F9"/>
<path d="M308.198 86.3364C307.668 86.8666 307.033 86.8608 306.473 86.3014L299.598 79.4263C299.039 78.867 299.045 78.2203 299.604 77.6609C299.965 77.2997 300.356 77.2006 300.991 77.2997L309.707 78.7446L309.754 78.698L305.046 73.9903C304.481 73.4251 304.475 72.7901 305.005 72.2599C305.535 71.7297 306.165 71.7413 306.73 72.3065L313.622 79.1991C314.17 79.7468 314.17 80.3644 313.616 80.9179C313.238 81.2966 312.871 81.3956 312.23 81.2908L303.473 79.8283L303.42 79.8808L308.157 84.6176C308.717 85.177 308.722 85.812 308.198 86.3364ZM317.121 77.4137C316.567 77.9672 315.903 77.9555 315.326 77.3787L308.638 70.69C308.061 70.1132 308.049 69.449 308.603 68.8955L311.143 66.3552C312.867 64.6306 315.204 64.5898 316.934 66.3202C318.659 68.0448 318.583 70.4278 316.812 72.199L315.239 73.7722L317.086 75.6191C317.663 76.1959 317.674 76.8601 317.121 77.4137ZM313.864 72.3971L315.052 71.2086C316.06 70.2006 316.113 69.0761 315.151 68.1147C314.196 67.1592 313.077 67.2058 312.069 68.2138L310.875 69.4082L313.864 72.3971ZM324.867 69.6911C324.319 70.2388 323.649 70.233 323.072 69.6562L316.372 62.9558C315.795 62.379 315.783 61.7148 316.337 61.1613L318.9 58.5977C320.835 56.6633 322.961 56.576 324.622 58.2365C325.671 59.2852 326.049 60.701 325.519 62.0236L328.828 62.9092C329.225 63.0141 329.417 63.1248 329.621 63.3287C330.087 63.7948 330.052 64.5057 329.539 65.0184C329.12 65.4379 328.776 65.4787 327.978 65.2514L324.045 64.1153L322.548 65.6127L324.832 67.8966C325.408 68.4734 325.42 69.1376 324.867 69.6911ZM321.272 64.3367L322.787 62.8218C323.672 61.9362 323.684 60.9108 322.851 60.0776C322.035 59.2619 320.963 59.2852 320.089 60.1592L318.592 61.6566L321.272 64.3367Z" fill="white"/>
<rect x="344.133" y="9.87695" width="45" height="45" rx="22.5" transform="rotate(-45 344.133 9.87695)" fill="#34824F"/>
<path d="M382.831 16.7337C381.918 17.6465 380.94 18.3263 379.898 18.7729C378.849 19.2132 377.813 19.375 376.791 19.2585C375.768 19.1419 374.832 18.7179 373.984 17.9864L373.839 17.8601L375.858 15.8403L375.985 15.9277C376.438 16.2514 376.933 16.4553 377.47 16.5395C378.014 16.6172 378.59 16.5395 379.199 16.3064C379.807 16.0604 380.448 15.6008 381.122 14.9275C381.795 14.2543 382.251 13.6231 382.491 13.034C382.737 12.4384 382.802 11.8946 382.685 11.4026C382.575 10.9041 382.332 10.4671 381.957 10.0916L381.947 10.0819C381.455 9.58992 380.892 9.35039 380.257 9.36334C379.616 9.36981 378.733 9.72263 377.606 10.4218L375.742 11.5871C374.726 12.228 373.774 12.6682 372.887 12.9077C372 13.1472 371.175 13.1764 370.411 12.9951C369.647 12.8009 368.935 12.3736 368.274 11.7133L368.265 11.7036C367.494 10.9332 367.028 10.0593 366.866 9.08173C366.711 8.09772 366.834 7.09428 367.235 6.07143C367.637 5.03563 368.294 4.06133 369.207 3.14853C370.106 2.24868 371.058 1.6013 372.062 1.2064C373.071 0.805031 374.068 0.675556 375.052 0.817979C376.03 0.953927 376.923 1.37472 377.733 2.08036L377.907 2.21631L375.878 4.24583L375.781 4.16815C375.302 3.79267 374.787 3.5758 374.237 3.51753C373.693 3.4528 373.139 3.54019 372.576 3.77972C372.019 4.01278 371.482 4.38825 370.964 4.90616C370.382 5.48879 369.98 6.07143 369.76 6.65407C369.54 7.23671 369.475 7.77403 369.566 8.26603C369.657 8.75804 369.867 9.16912 370.197 9.49929L370.217 9.51871C370.514 9.8165 370.851 10.0172 371.226 10.1208C371.608 10.2179 372.052 10.2017 372.557 10.0722C373.068 9.93626 373.651 9.66437 374.305 9.25652L376.179 8.08153C377.758 7.08457 379.17 6.54078 380.413 6.45015C381.662 6.35304 382.805 6.82239 383.841 7.85819L383.85 7.8679C384.698 8.71596 385.19 9.65466 385.326 10.684C385.469 11.7068 385.317 12.7459 384.87 13.8011C384.423 14.8434 383.743 15.8209 382.831 16.7337ZM383.879 18.9089L367.051 2.08036L368.138 0.99277L384.967 17.8213L383.879 18.9089Z" fill="white"/>
<rect x="222.512" y="257.363" width="45" height="45" rx="22.5" transform="rotate(-45 222.512 257.363)" fill="#34824F"/>
<path d="M261.21 264.22C260.297 265.133 259.319 265.813 258.277 266.259C257.228 266.699 256.192 266.861 255.17 266.745C254.147 266.628 253.211 266.204 252.363 265.473L252.218 265.346L254.237 263.327L254.364 263.414C254.817 263.738 255.312 263.942 255.849 264.026C256.393 264.104 256.969 264.026 257.578 263.793C258.186 263.547 258.827 263.087 259.5 262.414C260.174 261.741 260.63 261.109 260.87 260.52C261.116 259.925 261.18 259.381 261.064 258.889C260.954 258.39 260.711 257.953 260.336 257.578L260.326 257.568C259.834 257.076 259.271 256.837 258.636 256.85C257.995 256.856 257.112 257.209 255.985 257.908L254.121 259.073C253.104 259.714 252.153 260.155 251.266 260.394C250.379 260.634 249.554 260.663 248.79 260.481C248.026 260.287 247.314 259.86 246.653 259.2L246.644 259.19C245.873 258.42 245.407 257.546 245.245 256.568C245.09 255.584 245.213 254.581 245.614 253.558C246.016 252.522 246.673 251.548 247.586 250.635C248.485 249.735 249.437 249.088 250.44 248.693C251.45 248.291 252.447 248.162 253.431 248.304C254.409 248.44 255.302 248.861 256.111 249.567L256.286 249.703L254.257 251.732L254.16 251.654C253.681 251.279 253.166 251.062 252.616 251.004C252.072 250.939 251.518 251.027 250.955 251.266C250.398 251.499 249.861 251.875 249.343 252.392C248.761 252.975 248.359 253.558 248.139 254.14C247.919 254.723 247.854 255.26 247.945 255.752C248.035 256.244 248.246 256.655 248.576 256.986L248.595 257.005C248.893 257.303 249.23 257.504 249.605 257.607C249.987 257.704 250.431 257.688 250.936 257.559C251.447 257.423 252.03 257.151 252.684 256.743L254.558 255.568C256.137 254.571 257.549 254.027 258.792 253.936C260.041 253.839 261.184 254.309 262.219 255.345L262.229 255.354C263.077 256.202 263.569 257.141 263.705 258.17C263.848 259.193 263.695 260.232 263.249 261.287C262.802 262.33 262.122 263.307 261.21 264.22ZM262.258 266.395L245.43 249.567L246.517 248.479L263.346 265.308L262.258 266.395Z" fill="white"/>
<rect x="284.027" y="195.846" width="45" height="45" rx="22.5" transform="rotate(-45 284.027 195.846)" fill="#FF1744"/>
<path d="M318.479 186.391L320.776 188.688L313.927 195.537L318.688 200.298C319.078 200.688 319.426 200.925 319.732 201.008C320.025 201.078 320.366 200.918 320.755 200.528C321.076 200.208 321.34 199.846 321.549 199.442C321.744 199.024 321.883 198.607 321.967 198.189C322.036 197.758 322.029 197.347 321.946 196.957C321.862 196.567 321.695 196.247 321.444 195.997C321.319 195.871 321.145 195.809 320.922 195.809C320.7 195.809 320.428 195.969 320.108 196.289C319.857 196.539 319.656 196.783 319.502 197.02L317.038 195.224C317.219 194.904 317.449 194.577 317.728 194.243C318.02 193.894 318.333 193.553 318.667 193.219C319.489 192.398 320.338 191.925 321.215 191.799C322.092 191.674 322.927 192.008 323.721 192.802C324.472 193.553 324.967 194.396 325.203 195.328C325.44 196.261 325.468 197.208 325.287 198.168C325.106 199.129 324.779 200.055 324.305 200.946C323.832 201.809 323.275 202.56 322.635 203.201C322.05 203.785 321.486 204.21 320.943 204.475C320.414 204.725 319.92 204.857 319.461 204.871C319.154 204.871 318.834 204.843 318.5 204.788C318.18 204.718 317.804 204.551 317.373 204.287C316.955 204.008 316.454 203.577 315.869 202.992L311.171 198.294L309.417 200.048L307.12 197.751L318.479 186.391ZM303.507 191.048C303.966 190.588 304.426 190.24 304.885 190.004C305.345 189.767 305.811 189.649 306.284 189.649C306.827 189.635 307.412 189.788 308.038 190.108C308.665 190.428 309.41 191.02 310.273 191.883L311.714 193.324L308.957 196.08L307.621 194.744C307.273 194.396 306.953 194.131 306.66 193.95C306.368 193.769 306.082 193.707 305.804 193.762C305.512 193.804 305.198 193.992 304.864 194.326C304.683 194.507 304.509 194.723 304.342 194.973C304.189 195.21 304.05 195.475 303.925 195.767L301.127 194.556C301.475 193.818 301.823 193.191 302.171 192.676C302.505 192.147 302.95 191.604 303.507 191.048Z" fill="white"/>
<rect x="345.547" y="134.328" width="45" height="45" rx="22.5" transform="rotate(-45 345.547 134.328)" fill="#32867C"/>
<path d="M371.825 148.355C371.271 148.909 370.607 148.897 370.024 148.315L363.342 141.632C362.759 141.049 362.747 140.385 363.301 139.831C363.854 139.278 364.519 139.289 365.101 139.872L371.248 146.019L374.231 143.036C374.709 142.558 375.303 142.511 375.758 142.966C376.212 143.42 376.171 144.009 375.688 144.492L371.825 148.355ZM378.772 141.629C378.219 142.183 377.555 142.171 376.978 141.594L370.179 134.795C369.596 134.212 369.584 133.548 370.138 132.994C370.691 132.441 371.355 132.453 371.938 133.035L374.851 135.948L374.904 135.896L374.612 129.277C374.589 128.764 374.7 128.432 374.991 128.141C375.457 127.675 376.174 127.669 376.628 128.124C376.873 128.368 376.978 128.648 376.99 129.102L377.1 133.851L382.688 134.393C383.276 134.457 383.643 134.591 383.882 134.83C384.36 135.308 384.366 136.047 383.882 136.531C383.521 136.892 383.142 137.003 382.519 136.927L376.931 136.35L376.972 138.069L378.737 139.835C379.314 140.411 379.326 141.076 378.772 141.629ZM387.031 133.394C386.483 133.942 385.813 133.936 385.236 133.359L378.536 126.659C377.959 126.082 377.948 125.418 378.501 124.864L381.065 122.3C382.999 120.366 385.126 120.279 386.786 121.939C387.835 122.988 388.214 124.404 387.684 125.726L390.993 126.612C391.389 126.717 391.581 126.828 391.785 127.031C392.251 127.498 392.216 128.208 391.704 128.721C391.284 129.141 390.94 129.181 390.142 128.954L386.209 127.818L384.712 129.315L386.996 131.599C387.573 132.176 387.584 132.84 387.031 133.394ZM383.436 128.039L384.951 126.525C385.837 125.639 385.848 124.614 385.015 123.78C384.199 122.965 383.127 122.988 382.253 123.862L380.756 125.359L383.436 128.039Z" fill="white"/>
<rect x="285.441" y="320.297" width="45" height="45" rx="22.5" transform="rotate(-45 285.441 320.297)" fill="#D07216"/>
<path d="M324.617 326.47L313.615 326.745L311.821 324.951L314.829 321.943C315.835 320.937 316.365 319.972 316.419 319.047C316.481 318.116 316.093 317.232 315.257 316.396L315.237 316.376C314.373 315.512 313.483 315.118 312.565 315.193C311.654 315.261 310.696 315.798 309.69 316.804L306.682 319.812L305.265 318.395L308.854 314.806C309.833 313.827 310.825 313.147 311.831 312.766C312.837 312.372 313.83 312.29 314.808 312.522C315.787 312.739 316.718 313.29 317.602 314.173L317.622 314.194C318.493 315.064 319.057 316.009 319.315 317.028C319.573 318.034 319.519 319.068 319.152 320.128C318.792 321.182 318.105 322.215 317.092 323.228L315.583 324.737L315.39 323.809L327.656 323.432L324.617 326.47ZM309.822 322.952L308.67 321.8L318.51 311.961L319.662 313.113L309.822 322.952ZM306.06 319.19L304.877 318.007L314.717 308.168L315.899 309.351L306.06 319.19Z" fill="white"/>
<rect x="346.961" y="258.777" width="45" height="45" rx="22.5" transform="rotate(-45 346.961 258.777)" fill="#FF1744"/>
<path d="M381.413 249.323L383.71 251.62L376.861 258.469L381.622 263.23C382.011 263.62 382.359 263.856 382.666 263.94C382.958 264.009 383.299 263.849 383.689 263.46C384.009 263.139 384.274 262.777 384.482 262.374C384.677 261.956 384.817 261.538 384.9 261.121C384.97 260.689 384.963 260.279 384.879 259.889C384.796 259.499 384.629 259.179 384.378 258.928C384.253 258.803 384.079 258.74 383.856 258.74C383.633 258.74 383.362 258.9 383.042 259.221C382.791 259.471 382.589 259.715 382.436 259.951L379.972 258.156C380.153 257.835 380.383 257.508 380.661 257.174C380.953 256.826 381.267 256.485 381.601 256.151C382.422 255.33 383.271 254.856 384.148 254.731C385.025 254.606 385.861 254.94 386.654 255.733C387.406 256.485 387.9 257.327 388.137 258.26C388.373 259.193 388.401 260.139 388.22 261.1C388.039 262.06 387.712 262.986 387.239 263.877C386.766 264.74 386.209 265.492 385.568 266.132C384.984 266.717 384.42 267.142 383.877 267.406C383.348 267.657 382.854 267.789 382.394 267.803C382.088 267.803 381.768 267.775 381.434 267.719C381.114 267.65 380.738 267.483 380.306 267.218C379.888 266.94 379.387 266.508 378.803 265.924L374.104 261.225L372.35 262.979L370.053 260.682L381.413 249.323ZM366.441 253.979C366.9 253.52 367.359 253.172 367.819 252.935C368.278 252.698 368.745 252.58 369.218 252.58C369.761 252.566 370.346 252.719 370.972 253.04C371.598 253.36 372.343 253.951 373.206 254.815L374.647 256.255L371.891 259.012L370.554 257.675C370.206 257.327 369.886 257.063 369.594 256.882C369.301 256.701 369.016 256.638 368.738 256.694C368.445 256.736 368.132 256.924 367.798 257.258C367.617 257.439 367.443 257.654 367.276 257.905C367.123 258.142 366.984 258.406 366.858 258.699L364.06 257.487C364.408 256.75 364.756 256.123 365.104 255.608C365.438 255.079 365.884 254.536 366.441 253.979Z" fill="white"/>
</g>
<defs>
<clipPath id="clip0_456_14403">
<rect x="0.25" y="69.582" width="356.772" height="446.886" rx="48.7585" transform="rotate(-45 0.25 69.582)" fill="white"/>
</clipPath>
</defs>
</svg>