<svg xmlns:xlink="http://www.w3.org/1999/xlink" xmlns="http://www.w3.org/2000/svg" width="138" height="70" viewBox="0 0 138 70" fill="none">
<g clip-path="url(#clip0_518_22647)">
<path d="M48.3651 0.191144C46.3761 0.535407 44.4061 1.98896 43.3925 3.86328C42.7804 5.01082 42.7422 5.16382 42.7422 6.98076C42.7422 8.66382 42.7996 9.02721 43.2586 9.94524C43.5263 10.519 44.1192 11.3605 44.5591 11.8196C48.0209 15.3578 53.4908 14.4398 55.8815 9.90699C56.2449 9.19934 56.3214 8.77858 56.3214 7.07639C56.3214 5.25945 56.264 4.97256 55.805 4.09278C55.1356 2.83049 54.4662 2.02721 53.4717 1.35781C51.9799 0.34415 50.0673 -0.0957407 48.3651 0.191144Z" fill="#1D4957"/>
<path d="M25.8176 13.1007C25.8176 16.8302 25.7603 19.8903 25.6838 19.8903C25.5881 19.8903 25.2247 19.5843 24.8614 19.2018C23.9624 18.3029 22.9297 17.71 21.1127 17.0788C19.7165 16.6007 19.3723 16.5625 16.5417 16.5625C12.9078 16.5433 11.7603 16.7728 8.89141 18.169C3.63184 20.6936 0.380477 26.1444 0.0553399 32.9914C-0.135917 37.0269 0.533482 40.5269 2.04441 43.6062C2.79031 45.1171 3.2302 45.71 4.58813 47.0488C5.48703 47.9477 6.71108 48.9614 7.30397 49.3248C10.0389 50.9122 14.5526 51.8685 17.7848 51.5051C20.9788 51.1417 23.9624 49.8794 25.8368 48.0625L26.5444 47.3931L26.7548 48.8084C26.8887 49.5734 27.0034 50.3384 27.0226 50.4914C27.0608 50.7401 27.8641 50.7783 32.6646 50.8357L38.2493 50.8739V28.5925V6.31109H32.0335H25.8176V13.1007ZM21.9351 27.1581C25.3586 28.669 27.0226 33.8329 25.2821 37.5433C23.8859 40.5078 20.7876 42.0187 17.6892 41.2537C14.7439 40.5269 13.1373 38.6717 12.6018 35.4204C12.0854 32.3029 13.3286 29.0898 15.6236 27.598C17.2111 26.5461 20.1182 26.3548 21.9351 27.1581Z" fill="#1D4957"/>
<path d="M127.679 15.4739L125.805 17.3482L124.638 16.9848C120.526 15.7034 115.955 15.8182 111.652 17.2908C109.032 18.1898 106.966 19.4712 104.977 21.422C102.567 23.8127 101.209 26.3182 100.482 29.7225C100.138 31.3482 100.1 35.0012 100.387 36.7225C101.4 42.4029 104.9 46.7253 110.217 48.8482C112.436 49.728 114.329 50.1105 117.906 50.3974C121.846 50.7034 122.42 50.8373 123.414 51.6597C124.447 52.5012 124.887 53.4766 124.887 54.9111C124.887 57.6269 122.993 59.3673 119.627 59.7499C118.25 59.922 116.127 59.5969 115.152 59.0996C113.526 58.2772 112.455 56.3646 112.455 54.2799V53.3619H106.526H100.597V55.0832C100.597 63.4029 106.105 68.7772 115.649 69.8291C119.417 70.2307 123.931 69.81 127.278 68.7198C133.704 66.6351 137.261 62.3701 137.797 56.116C138.141 52.0422 136.305 48.2553 132.767 45.769C132.059 45.2717 131.447 44.851 131.409 44.8127C131.351 44.7745 131.925 44.1816 132.69 43.5122C134.125 42.1925 135.502 40.299 136.247 38.5969C138.103 34.3701 137.491 28.5941 134.794 25.1898L134.201 24.463L134.679 23.9466C134.947 23.6597 135.597 22.952 136.133 22.3783C136.687 21.8045 137.127 21.2881 137.127 21.2307C137.127 21.1734 135.425 19.4329 133.34 17.3482L129.573 13.5805L127.679 15.4739ZM121.291 26.9111C125.709 28.881 126.608 35.881 122.821 38.769C120.373 40.6242 116.108 40.2799 114.1 38.0613C111.384 35.0395 111.843 29.7417 115.018 27.5613C116.758 26.3564 119.417 26.0887 121.291 26.9111Z" fill="#1D4957"/>
<path d="M81.1853 16.4679C78.4312 16.7357 75.8109 17.8449 73.688 19.6428C72.4448 20.6947 72.2918 20.6755 72.2918 19.5089C72.2918 19.222 72.2344 18.7056 72.1771 18.3805L72.0623 17.7876H66.4394H60.8164V34.3313V50.875H67.0323H73.229L73.2864 40.9679L73.3437 31.0799L73.9749 29.7794C74.8738 27.9624 76.0405 27.1209 78.1252 26.7766C80.3246 26.4133 82.065 27.293 83.0596 29.263L83.6716 30.5061L83.729 40.681L83.7864 50.875H90.0022H96.218L96.1607 39.3422L96.0842 27.8286L95.5869 25.9734C94.994 23.8122 93.8656 21.5362 92.7372 20.2165C90.3273 17.4242 85.8902 15.9706 81.1853 16.4679Z" fill="#1D4957"/>
<path d="M43.2227 34.3696V50.9707L49.2855 50.9325C52.6325 50.8942 55.4822 50.8751 55.6161 50.8751C55.7882 50.8751 55.8456 47.4325 55.8456 34.3314V17.7876H49.5341H43.2227V34.3696Z" fill="#1D4957"/>
</g>
<defs>
<clipPath id="clip0_518_22647">
<rect width="138" height="70" fill="white"/>
</clipPath>
</defs>
</svg>