<svg xmlns:xlink="http://www.w3.org/1999/xlink" xmlns="http://www.w3.org/2000/svg" width="507" height="318" viewBox="0 0 507 318" fill="none">
<g clip-path="url(#clip0_456_18507)">
<rect x="359" width="176" height="125" rx="25.1429" fill="white"/>
<path fill-rule="evenodd" clip-rule="evenodd" d="M359 83.334H535V125.001H359V83.334Z" fill="#249F58"/>
<path fill-rule="evenodd" clip-rule="evenodd" d="M446.999 83.3268C458.565 83.3268 467.952 73.9935 467.952 62.4935C467.952 50.9935 458.565 41.6602 446.999 41.6602C435.434 41.6602 426.047 50.9935 426.047 62.4935C426.047 73.9935 435.434 83.3268 446.999 83.3268ZM446.999 74.9935C453.939 74.9935 459.571 69.3935 459.571 62.4935C459.571 55.5935 453.939 49.9935 446.999 49.9935C440.06 49.9935 434.428 55.5935 434.428 62.4935C434.428 69.3935 440.06 74.9935 446.999 74.9935Z" fill="#1A47B8"/>
<path d="M446.999 66.6732C449.313 66.6732 451.19 64.8077 451.19 62.5065C451.19 60.2053 449.313 58.3398 446.999 58.3398C444.685 58.3398 442.809 60.2053 442.809 62.5065C442.809 64.8077 444.685 66.6732 446.999 66.6732Z" fill="#1A47B8"/>
<path fill-rule="evenodd" clip-rule="evenodd" d="M359 0H535V41.6667H359V0Z" fill="#FF6C2D"/>
</g>
<g clip-path="url(#clip1_456_18507)">
<path d="M313.238 115H170.762C161.505 115 154 122.462 154 131.667V223.333C154 232.538 161.505 240 170.762 240H313.238C322.495 240 330 232.538 330 223.333V131.667C330 122.462 322.495 115 313.238 115Z" fill="white"/>
<path fill-rule="evenodd" clip-rule="evenodd" d="M154 198.334H330V240.001H154V198.334Z" fill="#151515"/>
<path fill-rule="evenodd" clip-rule="evenodd" d="M241.999 173.341L229.428 165.008L221.047 173.341L229.428 190.008L237.809 181.674H246.19L254.571 190.008L262.952 173.341L254.571 165.008L241.999 173.341Z" fill="#D4AF2C"/>
<path fill-rule="evenodd" clip-rule="evenodd" d="M154 115H330V156.667H154V115Z" fill="#F93939"/>
</g>
<g clip-path="url(#clip2_456_18507)">
<rect x="-53" y="205" width="176" height="125" rx="25.1429" fill="#0A6A30"/>
<path d="M106.238 205H-36.2381C-45.4954 205 -53 212.462 -53 221.667V313.333C-53 322.538 -45.4954 330 -36.2381 330H106.238C115.495 330 123 322.538 123 313.333V221.667C123 212.462 115.495 205 106.238 205Z" fill="#0A6A30"/>
<path fill-rule="evenodd" clip-rule="evenodd" d="M80.8773 254.783C80.3242 259.75 78.7486 263.333 76.9048 263.333C75.061 263.333 73.4853 259.75 72.9322 254.783C67.9371 254.233 64.3333 252.667 64.3333 250.833C64.3333 249 67.9371 247.433 72.9322 246.883C73.4853 241.917 75.061 238.333 76.9048 238.333C78.7486 238.333 80.3242 241.917 80.8773 246.883C85.8724 247.433 89.4762 249 89.4762 250.833C89.4762 252.667 85.8724 254.233 80.8773 254.783ZM-53 205H-2.71428V330H-53V205Z" fill="white"/>
<path fill-rule="evenodd" clip-rule="evenodd" d="M97.6068 263.063C97.7744 264.521 97.8583 265.996 97.8583 267.496C97.8583 288.204 80.9706 304.996 60.144 304.996C39.3173 304.996 22.4297 288.204 22.4297 267.496C22.4297 246.788 39.3173 229.996 60.144 229.996C61.6525 229.996 63.136 230.079 64.6026 230.246C50.2544 232.163 39.1916 244.388 39.1916 259.163C39.1916 275.271 52.3245 288.329 68.5249 288.329C83.3927 288.329 95.6792 277.329 97.6068 263.063Z" fill="white"/>
</g>
<g clip-path="url(#clip3_456_18507)">
<rect x="359" y="144" width="176" height="125" rx="25.1429" fill="#249F58"/>
<path d="M518.238 144H375.762C366.505 144 359 151.462 359 160.667V252.333C359 261.538 366.505 269 375.762 269H518.238C527.495 269 535 261.538 535 252.333V160.667C535 151.462 527.495 144 518.238 144Z" fill="#249F58"/>
<path d="M438.621 243.996C459.45 243.996 476.335 227.207 476.335 206.496C476.335 185.785 459.45 168.996 438.621 168.996C417.792 168.996 400.906 185.785 400.906 206.496C400.906 227.207 417.792 243.996 438.621 243.996Z" fill="#F93939"/>
</g>
<g clip-path="url(#clip4_456_18507)">
<rect x="154" y="259" width="176" height="125" rx="25.1429" fill="#F93939"/>
<path d="M313.238 259H170.762C161.505 259 154 266.462 154 275.667V367.333C154 376.538 161.505 384 170.762 384H313.238C322.495 384 330 376.538 330 367.333V275.667C330 266.462 322.495 259 313.238 259Z" fill="#F93939"/>
<path fill-rule="evenodd" clip-rule="evenodd" d="M154 259H330V325.667H154V259Z" fill="#1A47B8"/>
<path fill-rule="evenodd" clip-rule="evenodd" d="M154 259V384.275L237.81 321.5L154 259Z" fill="white"/>
<path d="M216.858 325.673C219.173 325.673 221.049 323.808 221.049 321.507C221.049 319.205 219.173 317.34 216.858 317.34C214.544 317.34 212.668 319.205 212.668 321.507C212.668 323.808 214.544 325.673 216.858 325.673Z" fill="#FFDA2C"/>
<path fill-rule="evenodd" clip-rule="evenodd" d="M191.588 325.542C198.88 325.084 204.286 323.459 204.286 321.501C204.286 319.551 198.88 317.917 191.588 317.459C191.127 310.209 189.493 304.834 187.524 304.834C185.562 304.834 183.92 310.209 183.459 317.459C176.167 317.917 170.762 319.542 170.762 321.501C170.762 323.451 176.167 325.084 183.459 325.542C183.911 332.792 185.554 338.167 187.524 338.167C189.485 338.167 191.127 332.792 191.588 325.542V325.542Z" fill="#FFDA2C"/>
<path d="M174.952 300.661C177.267 300.661 179.143 298.796 179.143 296.495C179.143 294.194 177.267 292.328 174.952 292.328C172.638 292.328 170.762 294.194 170.762 296.495C170.762 298.796 172.638 300.661 174.952 300.661Z" fill="#FFDA2C"/>
</g>
<g clip-path="url(#clip5_456_18507)">
<rect x="359" y="288" width="176" height="125" rx="25.1429" fill="#FFDA2C"/>
<rect x="359" y="288" width="176" height="125" fill="#FFDA2C"/>
<rect opacity="0.3" x="359" y="288" width="176" height="125" fill="#FF6C2D"/>
<path fill-rule="evenodd" clip-rule="evenodd" d="M434.43 304.664H518.239V396.331H434.43V304.664ZM464.056 376.464L464.543 376.098L464.744 376.464C465.02 376.964 465.783 376.948 466.286 376.464L466.68 376.073L467.015 376.448C467.434 376.948 468.222 376.948 468.725 376.448C469.093 376.098 469.144 376.089 469.378 376.364C469.512 376.514 469.923 376.698 470.283 376.756C470.937 376.873 470.954 376.864 471.331 376.106C471.666 375.473 471.708 375.223 471.633 374.606C471.583 374.189 471.524 373.539 471.507 373.148C471.49 372.431 471.49 372.423 472.278 372.064C472.697 371.864 473.2 371.598 473.393 371.464C473.703 371.248 474.566 369.906 474.566 369.631C474.566 369.564 474.231 369.464 473.812 369.398C472.178 369.148 471.901 367.981 472.974 365.814C474.709 362.298 475.756 358.856 475.765 356.664C475.765 355.689 475.807 355.356 475.907 355.581C476.293 356.439 475.597 360.081 474.541 362.706L474.122 363.764L474.524 363.639C474.742 363.556 476.058 362.831 477.432 362.006C481.204 359.756 482.503 359.306 484.95 359.439C486.995 359.556 487.867 360.081 489.308 362.089C490.079 363.148 490.817 363.906 492.158 365.023C495.041 367.406 495.158 367.606 495.292 370.406C495.435 373.239 495.376 373.406 493.742 373.873C492.359 374.273 491.479 375.123 491.253 376.314C491.135 376.956 491.395 376.981 492.091 376.381L492.594 375.948L492.828 376.381C493.13 376.964 493.767 376.964 494.295 376.381L494.689 375.964L495.091 376.381C495.728 377.048 496.575 376.898 496.809 376.048C496.851 375.898 496.977 375.948 497.228 376.231C497.689 376.764 498.871 376.998 499.005 376.564C499.055 376.414 498.955 376.023 498.795 375.698C498.108 374.331 497.89 373.673 497.874 372.931C497.874 371.898 498.1 371.398 498.997 370.548C500.086 369.523 500.421 368.214 499.6 368.214C499.097 368.214 498.578 367.606 498.259 366.631C497.589 364.673 497.714 362.464 498.712 358.798C499.717 355.048 499.835 354.381 499.843 351.881C499.843 349.856 499.818 349.506 499.466 348.398C499.256 347.731 498.821 346.714 498.511 346.164L497.949 345.164L498.678 344.348C500.916 341.898 500.463 337.881 497.756 336.348C496.943 335.864 496.734 335.823 495.292 335.848C494.421 335.848 493.113 335.998 492.359 336.181C491.588 336.348 490.297 336.498 489.409 336.498C488.001 336.498 487.766 336.464 487.23 336.081C486.66 335.681 486.559 335.498 486.45 334.581C486.434 334.381 486.333 334.198 486.232 334.164C486.04 334.081 485.143 335.081 485.026 335.548C484.959 335.764 484.9 335.748 484.715 335.464C484.59 335.256 484.414 334.798 484.322 334.448C484.095 333.548 484.372 332.864 485.16 332.364L485.788 331.981L485.436 331.681C484.682 331.064 483.4 331.481 482.939 332.514C482.805 332.789 482.662 333.031 482.62 333.031C482.578 333.031 482.327 332.756 482.067 332.423C481.095 331.173 481.43 329.306 482.738 328.731C483.425 328.431 484.037 328.664 484.162 329.273C484.355 330.206 484.967 328.981 484.858 327.873C484.774 327.139 484.774 327.106 485.168 327.106C485.704 327.106 486.844 328.039 487.205 328.773C487.624 329.606 487.582 330.939 487.121 331.923L486.786 332.698L487.238 332.581C487.909 332.398 488.579 331.831 488.914 331.164C489.266 330.448 489.308 329.056 488.998 328.298C488.688 327.573 488.722 327.464 489.166 327.714C489.937 328.131 490.339 328.581 490.649 329.381C490.934 330.089 490.951 330.264 490.8 331.006C490.716 331.464 490.507 332.064 490.347 332.339C490.096 332.781 490.096 332.856 490.289 332.856C490.649 332.856 491.42 332.398 491.688 332.023C491.823 331.823 492.024 331.356 492.133 330.956L492.325 330.256L492.552 330.789C492.87 331.539 493.474 332.231 494.228 332.656C495.041 333.123 495.376 333.156 494.957 332.723C494.672 332.431 494.144 330.389 494.303 330.198C494.387 330.081 495.493 331.198 496.734 332.681C497.924 334.098 498.661 334.548 499.751 334.548C501.151 334.548 501.955 332.948 501.343 331.439C500.966 330.556 500.153 330.439 499.684 331.189C499.466 331.539 499.407 331.814 499.466 332.173C499.55 332.623 499.516 332.673 499.215 332.673C498.795 332.673 498.008 332.006 496.6 330.439C494.446 328.064 491.823 326.048 489.937 325.314C488.722 324.831 486.132 324.648 484.908 324.948C483.567 325.264 481.975 326.281 481.12 327.364C479.595 329.281 479.578 331.823 481.061 334.148L481.48 334.814L481.195 335.398C480.776 336.264 480.81 337.423 481.279 338.273C481.489 338.648 481.698 338.956 481.749 338.956C481.799 338.956 481.849 338.706 481.866 338.414C481.908 337.664 482.151 337.164 482.57 336.973C482.939 336.789 483.182 336.873 484.9 337.773C486.702 338.731 489.66 338.789 492.811 337.939C494.362 337.539 496.181 337.564 496.985 338.006C498.452 338.823 498.795 340.939 497.714 342.548C497.245 343.231 496.792 343.514 495.284 344.064C494.127 344.481 493.859 344.514 491.236 344.481C488.998 344.448 488.194 344.506 487.28 344.756C486.291 345.031 485.688 345.056 482.771 344.964L479.402 344.848L479.779 345.264C479.98 345.481 480.282 345.764 480.424 345.873C480.676 346.056 480.676 346.081 480.29 346.264C480.064 346.381 479.578 346.464 479.201 346.464H478.505L478.421 347.248C478.371 347.681 478.371 348.164 478.421 348.356C478.505 348.631 478.48 348.664 478.254 348.564C478.12 348.481 477.717 348.356 477.365 348.256C477.013 348.156 476.544 347.964 476.318 347.814C475.932 347.564 475.899 347.564 475.748 347.898C475.631 348.198 474.457 349.348 474.281 349.348C474.256 349.348 474.223 349.123 474.197 348.848C474.197 348.581 474.03 347.873 473.829 347.281C473.644 346.698 473.443 346.048 473.393 345.848C473.309 345.548 473.284 345.531 473.183 345.764C473.125 345.906 473.032 346.306 472.982 346.656C472.94 346.989 472.764 347.573 472.597 347.906L472.295 348.523L472.102 347.989C471.901 347.423 471.557 346.823 471.432 346.823C471.39 346.823 471.314 347.014 471.264 347.239C471.18 347.698 470.367 348.989 470.175 348.989C470.091 348.989 470.032 348.623 470.032 348.181C470.032 347.731 469.973 347.373 469.89 347.373C469.823 347.373 469.755 347.481 469.755 347.623C469.755 347.956 469.06 348.981 468.834 348.981C468.725 348.981 468.565 349.098 468.465 349.248C468.213 349.631 468.004 349.581 468.104 349.164C468.163 348.956 468.13 348.498 468.037 348.123L467.811 347.248C467.778 347.114 467.535 347.148 467.007 347.373C466.152 347.731 465.867 347.673 466.303 347.206C466.47 347.039 466.722 346.473 466.847 345.939C466.981 345.406 467.183 344.939 467.3 344.881C467.451 344.831 467.442 344.906 467.258 345.231C467.132 345.464 467.023 345.781 467.023 345.931C467.023 346.081 466.914 346.431 466.797 346.723C466.68 347.023 466.604 347.281 466.629 347.306C466.663 347.348 466.981 347.189 467.35 346.956L468.021 346.539V346.914C468.021 347.123 468.104 347.664 468.188 348.131L468.373 348.964L468.825 348.689C469.286 348.406 469.73 347.398 469.73 346.623C469.73 346.223 469.898 346.289 469.965 346.706L470.2 347.706L470.401 348.489L470.711 347.989C470.879 347.714 471.105 347.181 471.197 346.798C471.365 346.148 471.599 345.864 471.599 346.339C471.599 346.689 472.32 347.923 472.454 347.823C472.521 347.773 472.655 347.306 472.747 346.789C472.949 345.706 473.267 344.973 473.477 345.123C473.56 345.189 473.577 345.289 473.535 345.373C473.502 345.456 473.661 346.164 473.904 346.939C474.155 347.714 474.407 348.498 474.449 348.673C474.533 348.964 474.616 348.923 475.136 348.314C475.471 347.939 475.756 347.523 475.79 347.381C475.84 347.181 475.915 347.189 476.209 347.431C476.628 347.781 478.053 348.348 478.162 348.198C478.203 348.148 478.245 347.656 478.245 347.114L478.271 346.114L478.69 346.223C478.916 346.289 479.385 346.281 479.737 346.223L480.374 346.098L479.813 345.581C479.503 345.298 479.184 344.931 479.109 344.764C479.025 344.598 478.74 344.431 478.438 344.406C477.575 344.306 476.058 343.181 476.058 342.656C476.058 342.548 476.267 342.714 476.527 343.031C477.097 343.714 477.885 344.148 478.572 344.148H479.092L478.773 343.598C478.589 343.264 478.421 342.664 478.379 342.156C478.321 341.364 478.254 341.239 477.625 340.656C477.248 340.306 476.77 339.781 476.578 339.489L476.226 338.964L476.041 339.589C475.941 339.939 475.815 340.214 475.773 340.214C475.723 340.214 475.522 340.014 475.354 339.773C475.161 339.523 474.968 339.323 474.935 339.323C474.876 339.323 474.717 339.656 474.558 340.073L474.281 340.798L474.063 340.381C473.938 340.131 473.661 339.731 473.435 339.464C473.208 339.181 473.083 338.964 473.167 338.964C473.25 338.964 473.535 339.248 473.795 339.589L474.273 340.223L474.466 339.756C474.575 339.489 474.616 339.064 474.566 338.723C474.482 338.223 474.499 338.206 474.65 338.514C474.734 338.714 475.01 339.098 475.262 339.348L475.714 339.848L476.024 339.098C476.335 338.348 476.343 338.348 476.477 338.781C476.67 339.381 478.027 340.864 479.184 341.714C479.352 341.848 479.285 341.381 478.958 340.339C478.874 340.064 478.79 339.564 478.79 339.231C478.79 338.731 478.69 338.506 478.203 338.023C477.516 337.323 477.298 336.831 477.164 335.706C477.114 335.248 476.997 334.739 476.896 334.581C476.754 334.331 476.728 334.473 476.77 335.314C476.787 335.898 476.728 336.598 476.636 336.898L476.469 337.431L476.335 336.981C476.251 336.731 475.941 336.314 475.622 336.023C475.287 335.748 475.077 335.473 475.119 335.414C475.161 335.364 475.496 335.614 475.848 335.981C476.393 336.539 476.519 336.598 476.586 336.356C476.67 336.064 476.586 334.806 476.418 333.939C476.335 333.489 476.335 333.489 476.754 334.023C477.055 334.439 477.215 334.906 477.34 335.739C477.508 336.798 477.592 336.989 478.329 337.823C478.773 338.348 479.167 338.739 479.184 338.706C479.218 338.673 479.268 337.339 479.31 335.748C479.394 332.706 479.31 331.981 478.748 331.039L478.463 330.556L478.907 329.914C479.494 329.081 479.762 328.414 479.88 327.498L479.98 326.748L479.477 327.389C479.058 327.906 478.866 328.023 478.388 328.023C477.91 328.023 477.717 327.923 477.407 327.464C477.022 326.923 476.335 326.406 475.681 326.148C475.429 326.064 475.346 326.098 475.346 326.314C475.346 326.481 475.22 326.931 475.052 327.331L474.759 328.064L474.139 327.248C473.753 326.748 473.301 326.364 472.965 326.248C472.102 325.948 472.06 325.973 472.06 326.831C472.06 328.106 471.641 328.348 470.887 327.498C470.325 326.831 469.848 326.698 468.767 326.856L467.928 326.981L468.096 327.481C468.213 327.898 468.18 328.064 467.912 328.539C467.476 329.306 466.906 329.639 466.034 329.639C465.632 329.639 465.129 329.748 464.911 329.889C464.702 330.014 464.174 330.173 463.738 330.223C463.302 330.281 462.841 330.389 462.707 330.448C462.506 330.548 462.481 330.464 462.539 329.848C462.648 328.898 462.154 328.206 461.366 328.206C460.36 328.206 459.899 329.398 460.293 330.973C460.368 331.239 460.442 331.649 460.493 331.931L460.511 332.031C460.57 332.323 461.014 333.098 461.584 333.839C462.12 334.556 462.623 335.298 462.707 335.489C462.791 335.681 463.067 335.989 463.319 336.173L463.78 336.506L463.721 335.864C463.654 335.148 463.771 335.031 464.056 335.531C464.165 335.723 464.425 336.014 464.643 336.198C464.978 336.464 465.037 336.473 465.037 336.231C465.037 336.064 465.104 335.731 465.188 335.448L465.355 334.948L465.607 335.631C465.758 336.006 466.244 336.864 466.68 337.548C467.535 338.839 468.054 340.298 467.786 340.631C467.677 340.773 467.384 340.756 466.78 340.598C466.303 340.481 465.716 340.414 465.473 340.456C464.97 340.539 464.945 340.456 465.247 339.956C465.565 339.431 465.515 339.348 464.886 339.348C464.157 339.348 462.355 338.881 461.659 338.514C460.989 338.181 460.821 338.264 460.629 339.098L460.268 340.639L460.075 341.473L460.805 341.389C461.207 341.331 461.727 341.223 461.953 341.123C462.187 341.039 462.397 340.989 462.422 341.014C462.447 341.048 462.338 341.381 462.196 341.748L461.911 342.414L462.372 342.298C462.623 342.231 463 342.064 463.21 341.931C463.579 341.698 463.604 341.714 463.897 342.323C464.249 343.073 464.534 343.048 464.593 342.239C464.66 341.423 464.869 341.548 465.263 342.639C465.624 343.689 466.018 344.056 466.085 343.439C466.11 343.239 466.303 342.898 466.529 342.689C466.973 342.273 467.308 342.406 467.493 343.056C467.702 343.723 467.258 344.423 465.984 345.456C463.386 347.523 461.894 350.356 461.458 353.956C461.073 357.206 462.28 360.573 464.702 362.989C465.858 364.156 467.702 365.364 467.585 364.906C467.099 362.923 467.115 359.156 467.618 358.514C467.702 358.414 467.669 358.806 467.56 359.381C467.157 361.531 467.333 363.239 468.373 367.248C469.295 370.881 469.177 372.431 467.853 373.448C467.434 373.781 467.149 373.831 466.009 373.814C464.769 373.798 464.635 373.831 464.232 374.248C463.847 374.664 463.352 375.998 463.352 376.614C463.352 376.948 463.629 376.906 464.191 376.481L464.056 376.464ZM454.67 369.798C454.804 369.573 454.904 369.214 454.904 369.006C454.904 368.689 455.013 368.606 455.55 368.506L456.195 368.389L455.776 367.931C455.256 367.398 455.206 366.981 455.659 366.981C456.103 366.981 456.866 366.364 456.983 365.898C457.042 365.698 457.008 365.414 456.916 365.264C456.664 364.889 456.187 364.948 456.103 365.364C456.002 365.814 455.851 365.823 455.491 365.364C454.955 364.698 454.938 363.298 455.466 362.481C455.701 362.098 455.701 362.064 455.382 361.681C455.047 361.248 454.795 360.406 454.963 360.206C455.013 360.148 455.282 360.206 455.55 360.323C455.952 360.489 456.111 360.506 456.271 360.323C456.773 359.823 456.229 359.156 455.432 359.306C455.122 359.364 454.997 359.306 454.946 359.089C454.913 358.923 454.636 358.698 454.318 358.589C453.765 358.406 453.756 358.423 453.756 358.923C453.756 359.481 453.505 359.589 453.061 359.231C452.683 358.939 452.323 359.164 452.323 359.689C452.323 360.173 452.7 360.414 453.362 360.356C453.865 360.314 453.89 360.823 453.404 361.539L453.052 362.064L453.329 362.589C453.748 363.364 453.706 364.656 453.245 365.298L452.91 365.798L452.675 365.398C452.357 364.839 451.921 364.881 451.795 365.481C451.711 365.873 451.795 366.048 452.155 366.464C452.407 366.739 452.767 366.964 452.96 366.964C453.446 366.964 453.429 367.464 452.927 367.981L452.533 368.381L453.153 368.506C453.488 368.573 453.756 368.706 453.756 368.798C453.756 369.131 454.175 370.198 454.318 370.198C454.402 370.198 454.569 370.031 454.678 369.806L454.67 369.798ZM456.79 351.714C458.181 350.906 458.299 348.848 456.991 348.298C456.447 348.081 456.103 348.214 455.902 348.689C455.734 349.064 455.843 349.739 456.069 349.739C456.136 349.739 456.195 349.856 456.195 350.006C456.195 350.723 454.075 351.048 453.211 350.464C452.91 350.256 452.792 349.731 453.044 349.731C453.211 349.731 453.354 349.181 453.262 348.798C453.128 348.281 452.725 348.098 452.155 348.298C450.856 348.748 450.898 350.764 452.214 351.631C453.304 352.323 455.684 352.364 456.807 351.714H456.79ZM455.927 350.131C456.011 350.048 455.977 349.881 455.843 349.739C455.55 349.431 455.567 348.973 455.885 348.448C456.136 348.056 456.162 347.473 456.245 341.564C456.388 331.364 456.958 323.706 457.712 321.873C458.014 321.139 457.963 321.123 457.192 321.831C456.187 322.731 455.432 323.914 454.762 325.581C453.488 328.748 453.044 333.014 453.044 342.114C453.044 347.281 453.077 347.948 453.295 348.448C453.513 348.898 453.522 349.073 453.379 349.564C453.279 349.881 453.237 350.189 453.279 350.231C453.563 350.598 455.625 350.506 455.935 350.123L455.927 350.131ZM451.192 312.997H442.811V321.331H451.192V312.997ZM509.858 312.997H501.477V321.331H509.858V312.997ZM451.192 379.664H442.811V387.997H451.192V379.664ZM509.858 379.664H501.477V387.997H509.858V379.664Z" fill="#AF010D"/>
<path fill-rule="evenodd" clip-rule="evenodd" d="M400.906 304.664H426.049V396.331H400.906V304.664Z" fill="#FF6C2D"/>
<path opacity="0.2" fill-rule="evenodd" clip-rule="evenodd" d="M400.906 304.664H426.049V396.331H400.906V304.664Z" fill="#151515"/>
<path fill-rule="evenodd" clip-rule="evenodd" d="M375.762 304.664H400.905V396.331H375.762V304.664Z" fill="#0A6A30"/>
</g>
<defs>
<clipPath id="clip0_456_18507">
<rect x="359" width="176" height="125" rx="25.1429" fill="white"/>
</clipPath>
<clipPath id="clip1_456_18507">
<rect x="154" y="115" width="176" height="125" rx="25.1429" fill="white"/>
</clipPath>
<clipPath id="clip2_456_18507">
<rect x="-53" y="205" width="176" height="125" rx="25.1429" fill="white"/>
</clipPath>
<clipPath id="clip3_456_18507">
<rect x="359" y="144" width="176" height="125" rx="25.1429" fill="white"/>
</clipPath>
<clipPath id="clip4_456_18507">
<rect x="154" y="259" width="176" height="125" rx="25.1429" fill="white"/>
</clipPath>
<clipPath id="clip5_456_18507">
<rect x="359" y="288" width="176" height="125" rx="25.1429" fill="white"/>
</clipPath>
</defs>
</svg>