<svg width="24" height="17" viewBox="0 0 24 17" fill="none" xmlns="http://www.w3.org/2000/svg">
<g clip-path="url(#clip0_809_13519)">
<mask id="mask0_809_13519" style="mask-type:luminance" maskUnits="userSpaceOnUse" x="0" y="-1" width="24" height="19">
<path d="M24 -0.0703125H0V17.0726H24V-0.0703125Z" fill="white"/>
</mask>
<g mask="url(#mask0_809_13519)">
<path d="M24 -0.0703125H0V17.0726H24V-0.0703125Z" fill="#F93939"/>
<path d="M21.7143 -0.0703125H2.28571C1.02335 -0.0703125 0 0.95304 0 2.2154V14.7868C0 16.0492 1.02335 17.0725 2.28571 17.0725H21.7143C22.9767 17.0725 24 16.0492 24 14.7868V2.2154C24 0.95304 22.9767 -0.0703125 21.7143 -0.0703125Z" fill="#F93939"/>
<path fill-rule="evenodd" clip-rule="evenodd" d="M6.85547 11.3594H23.9983V17.0737H6.85547V11.3594Z" fill="#249F58"/>
<path fill-rule="evenodd" clip-rule="evenodd" d="M6.85793 -0.0703125H24.0008V5.64397H6.85793V-0.0703125ZM5.23051 4.39026C5.16765 4.48512 5.09565 4.57312 5.01336 4.65655C4.34251 5.32626 3.25679 5.32626 2.58822 4.65655C1.91851 3.98797 1.91851 2.90226 2.58822 2.23369C2.67051 2.14912 2.75965 2.07712 2.85451 2.01426C2.59736 2.49426 2.80879 3.26226 3.39622 3.84855C3.98365 4.43369 4.75051 4.64626 5.23165 4.38912L5.23051 4.39026Z" fill="white"/>
<path fill-rule="evenodd" clip-rule="evenodd" d="M2.77068 4.39163C2.83353 4.48649 2.90553 4.57448 2.98782 4.65791C3.65868 5.32762 4.74439 5.32762 5.41296 4.65791C6.08268 3.98934 6.08268 2.90362 5.41296 2.23505C5.33068 2.15048 5.24153 2.07848 5.14668 2.01562C5.40382 2.49562 5.19239 3.26363 4.60496 3.84992C4.01753 4.43506 3.25068 4.64763 2.76953 4.39049L2.77068 4.39163Z" fill="white"/>
</g>
</g>
<defs>
<clipPath id="clip0_809_13519">
<rect width="24" height="17" rx="2" fill="white"/>
</clipPath>
</defs>
</svg>
