<svg width="970" height="560" viewBox="0 0 970 560" fill="none" xmlns="http://www.w3.org/2000/svg">
<g clip-path="url(#clip0_616_23654)">
<rect width="125" height="125" rx="20" transform="matrix(0.866025 0.5 -0.866025 0.5 484.973 0)" fill="white"/>
<g clip-path="url(#clip1_616_23654)">
<path fill-rule="evenodd" clip-rule="evenodd" d="M497.152 46.0938L497.152 46.094C495.658 46.957 495.658 48.3559 497.153 49.2188L510.684 57.0313C512.179 57.8941 514.602 57.8942 516.096 57.0315C517.591 57.8945 517.59 59.2934 516.096 60.1562L480.914 80.4688C479.419 81.3317 476.996 81.3317 475.501 80.4688L456.557 69.5312C455.062 68.6683 455.062 67.2692 456.557 66.4062L491.739 46.0938C493.234 45.2308 495.657 45.2308 497.152 46.0938ZM502.564 42.9688C498.08 40.3799 490.81 40.3799 486.326 42.9688L451.144 63.2812C446.66 65.8701 446.66 70.0674 451.144 72.6562L470.088 83.5938C474.572 86.1826 481.842 86.1826 486.326 83.5938L521.509 63.2812C525.993 60.6924 525.993 56.4951 521.509 53.9062L502.564 42.9688ZM470.084 74.2188C471.578 75.0817 474.002 75.0817 475.496 74.2188C476.991 73.3558 476.991 71.9567 475.496 71.0938L472.79 69.5312C471.295 68.6683 468.872 68.6683 467.377 69.5312C465.883 70.3942 465.883 71.7933 467.377 72.6562L470.084 74.2188Z" fill="#00838F"/>
</g>
</g>
<g clip-path="url(#clip2_616_23654)">
<rect width="125" height="125" rx="20" transform="matrix(0.866025 0.5 -0.866025 0.5 610.547 72.5)" fill="white"/>
<g clip-path="url(#clip3_616_23654)">
<path fill-rule="evenodd" clip-rule="evenodd" d="M640.316 139.687L618.665 152.188C617.171 153.05 614.747 153.05 613.253 152.188L580.777 133.438C579.282 132.575 579.282 131.175 580.777 130.313L602.427 117.813C603.922 116.95 606.345 116.95 607.84 117.813L640.316 136.562C641.811 137.425 641.811 138.825 640.316 139.687ZM645.729 133.437C650.213 136.026 650.213 140.224 645.729 142.812L624.078 155.313C619.594 157.901 612.324 157.901 607.84 155.313L575.364 136.563C570.88 133.974 570.88 129.776 575.364 127.188L597.015 114.688C601.499 112.099 608.769 112.099 613.253 114.688L645.729 133.437ZM598.363 124.844C596.868 123.981 594.445 123.981 592.95 124.844C591.456 125.707 591.456 127.106 592.95 127.969L595.657 129.531C597.151 130.394 599.575 130.394 601.069 129.531C602.564 128.668 602.564 127.269 601.069 126.406L598.363 124.844ZM620.013 140.469C621.508 139.606 623.931 139.606 625.426 140.469L628.132 142.031C629.627 142.894 629.627 144.293 628.132 145.156C626.638 146.019 624.214 146.019 622.72 145.156L620.013 143.594C618.519 142.731 618.519 141.332 620.013 140.469ZM607.843 133.437C609.338 132.575 611.761 132.575 613.256 133.437C614.75 134.3 614.75 135.7 613.256 136.562C611.761 137.425 609.338 137.425 607.843 136.562C606.348 135.7 606.348 134.3 607.843 133.437ZM618.668 130.313C614.184 127.724 606.914 127.724 602.43 130.312C597.946 132.901 597.946 137.099 602.43 139.688C606.914 142.276 614.184 142.276 618.668 139.687C623.152 137.099 623.152 132.901 618.668 130.313Z" fill="#651FFF"/>
</g>
</g>
<g clip-path="url(#clip4_616_23654)">
<rect width="125" height="125" rx="20" transform="matrix(0.866025 0.5 -0.866025 0.5 736.121 145)" fill="white"/>
<g clip-path="url(#clip5_616_23654)">
<path fill-rule="evenodd" clip-rule="evenodd" d="M755.765 194.83C757.394 194.982 758.671 195.719 758.934 196.66L764.196 215.497C764.392 216.197 763.993 216.909 763.124 217.411L738.828 231.438C737.333 232.301 734.91 232.301 733.415 231.438L723.938 225.966L740.17 216.594C744.654 214.006 744.654 209.808 740.17 207.219L737.464 205.657C732.98 203.068 725.71 203.068 721.226 205.657L704.994 215.029L695.527 209.563C694.032 208.7 694.032 207.301 695.527 206.438L719.823 192.411C720.692 191.909 721.925 191.679 723.138 191.792L755.765 194.83ZM718.525 222.841L710.406 218.154L726.639 208.782C728.133 207.919 730.557 207.919 732.051 208.782L734.758 210.344C736.252 211.207 736.252 212.606 734.758 213.469L718.525 222.841ZM699.581 218.154L690.114 212.688C685.63 210.099 685.63 205.902 690.114 203.313L714.41 189.286C717.017 187.781 720.717 187.09 724.357 187.429L756.984 190.467C761.871 190.922 765.702 193.135 766.491 195.956L771.753 214.793C772.34 216.894 771.144 219.031 768.537 220.536L744.241 234.563C739.757 237.152 732.487 237.152 728.003 234.563L718.525 229.091L718.52 229.094L715.813 227.532L702.282 219.719L699.575 218.157L699.581 218.154Z" fill="#607D8B"/>
</g>
</g>
<g clip-path="url(#clip6_616_23654)">
<rect width="125" height="125" rx="20" transform="matrix(0.866025 0.5 -0.866025 0.5 861.695 217.5)" fill="white"/>
<g clip-path="url(#clip7_616_23654)">
<path fill-rule="evenodd" clip-rule="evenodd" d="M868.828 297.761C867.333 296.898 864.91 296.898 863.415 297.761C861.921 298.624 861.921 300.023 863.415 300.886L868.828 304.011C870.323 304.874 872.746 304.874 874.241 304.011C874.477 303.875 874.675 303.725 874.837 303.567C875.104 303.475 875.355 303.363 875.585 303.23L879.425 301.013C882.55 299.209 885.15 297.126 887.127 294.843C889.103 292.561 890.43 290.11 891.055 287.584L891.202 286.987C891.461 285.943 891.59 284.889 891.59 283.834L891.59 283.138C891.59 281.202 891.05 279.279 889.989 277.442C889.006 275.738 887.587 274.129 885.779 272.668L884.962 272.008C882.362 269.906 879.177 268.067 875.536 266.566L874.393 266.094C871.862 265.051 869.075 264.231 866.124 263.664C862.943 263.051 859.611 262.739 856.258 262.739L855.054 262.739C853.226 262.739 851.401 262.814 849.592 262.963L848.558 263.048C844.183 263.409 839.937 264.175 835.984 265.316C832.031 266.457 828.423 267.959 825.298 269.763L821.458 271.98C821.225 272.115 821.027 272.263 820.867 272.42C820.595 272.513 820.338 272.626 820.105 272.761C818.61 273.624 818.61 275.023 820.105 275.886L825.517 279.011C827.012 279.874 829.435 279.874 830.93 279.011C832.425 278.148 832.425 276.749 830.93 275.886L828.224 274.324L830.711 272.888C833.254 271.42 836.191 270.198 839.408 269.269C840.847 268.853 842.334 268.499 843.857 268.208L844.171 269.112C844.586 270.309 846.603 271.084 848.676 270.845C850.748 270.605 852.092 269.44 851.676 268.244L851.344 267.287C852.575 267.202 853.814 267.159 855.054 267.159L856.258 267.159C858.789 267.159 861.303 267.394 863.704 267.856C865.93 268.285 868.034 268.903 869.944 269.691L871.087 270.162C871.521 270.341 871.948 270.526 872.366 270.717L868.825 272.761C867.331 273.624 867.331 275.023 868.825 275.886C870.32 276.749 872.743 276.749 874.238 275.886L877.778 273.843C878.106 274.083 878.425 274.328 878.733 274.577L879.55 275.237C880.914 276.34 881.985 277.554 882.728 278.84C883.528 280.226 883.936 281.677 883.936 283.138L883.936 283.834C883.936 284.481 883.875 285.128 883.753 285.771L881.61 285.523C879.537 285.283 877.52 286.059 877.105 287.255C876.69 288.452 878.033 289.616 880.105 289.856L882.228 290.102C881.704 291.05 881.053 291.974 880.28 292.867C878.672 294.724 876.555 296.42 874.012 297.888L871.53 299.321L868.828 297.761ZM844.115 287.748C843.923 286.533 845.475 285.458 847.58 285.347L866.638 284.347C868.743 284.237 870.605 285.132 870.796 286.348C870.987 287.563 869.436 288.638 867.331 288.748L848.273 289.749C846.168 289.859 844.306 288.964 844.115 287.748Z" fill="#FF1744"/>
</g>
</g>
<g clip-path="url(#clip8_616_23654)">
<rect width="125" height="125" rx="20" transform="matrix(0.866025 0.5 -0.866025 0.5 359.398 72.5)" fill="white"/>
<g clip-path="url(#clip9_616_23654)">
<path fill-rule="evenodd" clip-rule="evenodd" d="M383.56 117.698L383.758 117.813L389.17 120.938L389.368 121.052C394.303 123.901 398.281 126.197 400.989 128.246C403.8 130.374 405.601 132.492 405.601 135C405.601 137.508 403.8 139.626 400.989 141.754C398.281 143.803 394.303 146.099 389.368 148.948L389.17 149.062L383.758 152.188L383.56 152.302C378.625 155.151 374.647 157.448 371.098 159.011C367.414 160.634 363.745 161.674 359.401 161.674C355.057 161.674 351.388 160.634 347.703 159.011C344.154 157.448 340.177 155.151 335.242 152.302L335.044 152.188L329.631 149.062L329.433 148.948C324.498 146.099 320.52 143.803 317.813 141.754C315.001 139.626 313.201 137.508 313.201 135C313.201 132.492 315.001 130.374 317.813 128.246C320.52 126.197 324.498 123.901 329.433 121.052L329.433 121.052L329.433 121.052L329.631 120.938L335.044 117.812L335.242 117.698C340.177 114.849 344.154 112.552 347.703 110.989C351.388 109.366 355.057 108.326 359.401 108.326C363.745 108.326 367.414 109.366 371.098 110.989C374.647 112.552 378.625 114.849 383.56 117.698ZM366.455 114.503C363.451 113.179 361.398 112.746 359.401 112.746C357.403 112.746 355.35 113.179 352.346 114.503C349.254 115.865 345.636 117.947 340.456 120.937L335.044 124.063C329.864 127.053 326.257 129.142 323.898 130.927C321.606 132.661 320.855 133.847 320.855 135C320.855 136.153 321.606 137.339 323.898 139.073C326.257 140.858 329.864 142.947 335.044 145.937L340.456 149.063C345.636 152.053 349.254 154.135 352.346 155.497C355.35 156.821 357.403 157.254 359.401 157.254C361.398 157.254 363.451 156.821 366.455 155.497C369.547 154.135 373.165 152.053 378.345 149.063L383.758 145.937C388.937 142.947 392.544 140.858 394.903 139.073C397.195 137.339 397.946 136.153 397.946 135C397.946 133.847 397.195 132.661 394.903 130.927C392.544 129.142 388.937 127.053 383.758 124.063L378.345 120.938C373.165 117.947 369.547 115.865 366.455 114.503ZM374.059 148.412L374.059 148.351L374.059 148.351L374.059 148.351C374.059 147.133 374.059 146.083 373.931 145.219C373.796 144.307 373.498 143.401 372.695 142.536C371.627 141.387 369.995 140.445 368.005 139.828C366.507 139.364 364.937 139.192 363.357 139.114C361.861 139.04 360.041 139.04 357.932 139.041L357.778 139.041C356.117 139.041 355.144 139.038 354.451 139C354.416 138.998 354.383 138.996 354.352 138.994C354.36 138.977 354.369 138.959 354.379 138.939C354.576 138.554 354.933 138.031 355.55 137.141L355.743 136.863L355.823 136.748C357.107 134.893 358.186 133.337 358.808 132.053C359.449 130.731 359.796 129.344 358.997 127.955C358.33 126.797 357.123 125.767 355.508 124.98C353.571 124.036 351.212 123.706 348.847 123.559C346.866 123.435 344.431 123.418 341.578 123.416L337.751 125.625C336.353 126.433 335.086 127.165 333.94 127.835L339.974 127.835C343.704 127.835 346.19 127.838 348.024 127.952C349.836 128.066 350.367 128.258 350.569 128.356C351.108 128.619 351.51 128.962 351.732 129.348C351.816 129.493 351.927 129.849 351.436 130.862C350.939 131.888 350.021 133.222 348.636 135.221L348.443 135.499L348.384 135.584C347.846 136.36 347.347 137.081 347.036 137.692C346.709 138.333 346.418 139.158 346.783 140.053C347.213 141.109 348.301 142.036 349.838 142.659C351.143 143.187 352.578 143.337 353.729 143.4C354.828 143.46 356.172 143.46 357.619 143.46L357.619 143.46L357.619 143.46L357.778 143.46C360.085 143.46 361.574 143.462 362.706 143.518C363.79 143.571 364.189 143.661 364.386 143.722C365.05 143.928 365.594 144.242 365.95 144.625C366.055 144.739 366.212 144.969 366.304 145.595C366.401 146.248 366.404 147.108 366.404 148.44L366.404 152.658C368.472 151.608 370.909 150.226 374.059 148.412ZM379.694 137.344C381.936 138.638 385.571 138.638 387.813 137.344C390.055 136.049 390.055 133.951 387.813 132.656C385.571 131.362 381.936 131.362 379.694 132.656C377.452 133.951 377.452 136.049 379.694 137.344Z" fill="#7B1FA2"/>
</g>
</g>
<g clip-path="url(#clip10_616_23654)">
<rect width="125" height="125" rx="20" transform="matrix(0.866025 0.5 -0.866025 0.5 233.824 145)" fill="white"/>
<g clip-path="url(#clip11_616_23654)">
<path fill-rule="evenodd" clip-rule="evenodd" d="M258.934 191.271C260.449 191.446 261.633 192.129 261.936 193.004L270.055 216.442C270.386 217.396 269.595 218.364 268.108 218.823C266.621 219.283 264.789 219.126 263.596 218.437L258.183 215.312L231.12 230.937L236.533 234.062C238.027 234.925 238.027 236.324 236.533 237.187C235.038 238.05 232.615 238.05 231.12 237.187L223.001 232.5L206.763 223.125L190.525 213.75L182.406 209.062C180.911 208.199 180.911 206.8 182.406 205.937C183.901 205.074 186.324 205.074 187.819 205.937L193.231 209.062L220.295 193.437L214.882 190.312C213.689 189.624 213.418 188.566 214.214 187.707C215.01 186.849 216.685 186.392 218.339 186.583L258.934 191.271ZM225.707 196.562L198.644 212.187L209.469 218.437L236.533 202.812L225.707 196.562ZM241.945 205.937L214.882 221.562L225.707 227.812L252.771 212.187L241.945 205.937ZM260.07 210.152L244.652 201.25L229.233 192.348L254.931 195.315L260.07 210.152Z" fill="#00695C"/>
</g>
</g>
<g clip-path="url(#clip12_616_23654)">
<rect width="125" height="125" rx="20" transform="matrix(0.866025 0.5 -0.866025 0.5 108.25 217.5)" fill="white"/>
<g clip-path="url(#clip13_616_23654)">
<path fill-rule="evenodd" clip-rule="evenodd" d="M133.954 297.969C135.075 298.616 136.893 298.616 138.014 297.969C139.135 297.322 139.135 296.272 138.014 295.625L131.248 291.719L138.014 287.813C139.135 287.165 139.135 286.116 138.014 285.469C136.893 284.822 135.075 284.822 133.954 285.469L127.188 289.375L120.423 285.469C119.302 284.822 117.484 284.822 116.363 285.469C115.242 286.116 115.242 287.165 116.363 287.813L123.129 291.719L116.363 295.625C115.242 296.272 115.242 297.322 116.363 297.969C117.484 298.616 119.302 298.616 120.423 297.969L127.188 294.063L133.954 297.969ZM83.1246 277.996L96.964 285.986C100.242 287.879 101.227 290.723 99.4621 293.198L98.2477 294.901C97.2079 296.359 93.9335 296.737 92.0023 295.622L66.4356 280.861C64.5044 279.746 65.1593 277.855 67.6847 277.255L70.6339 276.554C74.92 275.535 79.847 276.104 83.1246 277.996ZM102.377 282.861L88.5373 274.871C83.0746 271.717 74.8629 270.769 67.7194 272.467L64.7702 273.168C57.194 274.97 55.2294 280.641 61.0229 283.986L86.5897 298.747C92.3832 302.092 102.206 300.957 105.326 296.583L106.54 294.881C109.482 290.756 107.839 286.015 102.377 282.861ZM121.776 272.188C117.292 274.776 110.022 274.776 105.538 272.188C101.054 269.599 101.054 265.401 105.538 262.813C110.022 260.224 117.292 260.224 121.776 262.813C126.26 265.401 126.26 269.599 121.776 272.188ZM127.189 275.313C119.716 279.627 107.599 279.627 100.126 275.313C92.6524 270.998 92.6524 264.002 100.126 259.688C107.599 255.373 119.716 255.373 127.189 259.688C134.662 264.002 134.662 270.998 127.189 275.313Z" fill="#AB47BC"/>
</g>
</g>
<g clip-path="url(#clip14_616_23654)">
<rect width="125" height="125" rx="20" transform="matrix(0.866025 0.5 -0.866025 0.5 484.973 145)" fill="white"/>
<path fill-rule="evenodd" clip-rule="evenodd" d="M497.46 190.634C497.451 191.854 495.73 192.839 493.616 192.834L486.016 192.814C484.014 192.809 482.467 192.807 481.216 192.83L514.743 212.187C516.237 213.05 516.237 214.449 514.743 215.312C513.248 216.175 510.825 216.175 509.33 215.312L472.122 193.83C470.36 192.813 470.02 190.88 472.526 189.76C474.35 188.945 476.422 188.64 478.54 188.506C480.532 188.381 482.989 188.387 485.84 188.394C485.91 188.395 485.98 188.395 486.05 188.395L493.65 188.415C495.764 188.42 497.47 189.414 497.46 190.634ZM455.203 199.687C456.698 198.824 459.121 198.824 460.616 199.687L498.505 221.562C500.216 222.55 500.478 224.369 498.191 225.446C498.116 225.482 498.039 225.517 497.962 225.552C496.138 226.367 494.066 226.672 491.948 226.805C489.956 226.931 487.499 226.925 484.648 226.917L484.438 226.917L476.838 226.897C474.724 226.892 473.018 225.898 473.028 224.678C473.037 223.457 474.758 222.472 476.872 222.478L484.472 222.497C486.474 222.502 488.021 222.505 489.272 222.481L455.203 202.812C453.709 201.949 453.709 200.55 455.203 199.687Z" fill="#424242"/>
</g>
<g clip-path="url(#clip15_616_23654)">
<rect width="125" height="125" rx="20" transform="matrix(0.866025 0.5 -0.866025 0.5 359.398 217.5)" fill="white"/>
<g clip-path="url(#clip16_616_23654)">
<path fill-rule="evenodd" clip-rule="evenodd" d="M381.059 267.502L372.938 262.813C370.31 261.296 368.605 260.319 367.185 259.693C365.854 259.106 365.231 259.041 364.819 259.041C364.407 259.041 363.784 259.106 362.452 259.693C361.033 260.319 359.328 261.296 356.7 262.813L329.637 278.438C327.009 279.956 325.316 280.94 324.232 281.76C323.216 282.528 323.103 282.888 323.103 283.126C323.103 283.364 323.216 283.723 324.232 284.492C325.316 285.312 327.009 286.296 329.637 287.813L345.875 297.188C348.503 298.706 350.207 299.683 351.627 300.309C352.959 300.895 353.582 300.961 353.994 300.961C354.406 300.961 355.028 300.895 356.36 300.309C357.78 299.683 359.485 298.706 362.113 297.188L381.059 286.249L372.943 281.563L372.795 281.478C371.647 280.816 370.532 280.172 369.736 279.57C368.838 278.89 367.994 278.011 367.994 276.876C367.994 275.741 368.838 274.861 369.736 274.182C370.532 273.58 371.647 272.936 372.795 272.273L372.795 272.273L372.943 272.188L381.059 267.502ZM385.349 282.476L385.349 271.276L378.355 275.313C377.003 276.094 376.267 276.526 375.821 276.863L375.804 276.876L375.821 276.889C376.267 277.226 377.003 277.658 378.355 278.438L385.349 282.476ZM392.421 268.287C391.825 267.457 390.73 266.831 389.87 266.338C389.791 266.293 389.715 266.249 389.64 266.206L378.351 259.688L378.172 259.585C375.773 258.2 373.706 257.007 371.828 256.18C369.816 255.293 367.578 254.622 364.819 254.622C362.06 254.622 359.822 255.293 357.809 256.18C355.931 257.007 353.864 258.2 351.465 259.585L351.287 259.688L324.224 275.313L324.046 275.416C321.647 276.801 319.579 277.995 318.146 279.079C316.611 280.241 315.448 281.533 315.448 283.126C315.448 284.719 316.611 286.011 318.146 287.173C319.579 288.257 321.647 289.45 324.046 290.835L324.224 290.938L340.462 300.313L340.64 300.416C343.039 301.801 345.106 302.995 346.984 303.822C348.997 304.709 351.235 305.38 353.994 305.38C356.752 305.38 358.991 304.709 361.003 303.822C362.881 302.995 364.948 301.801 367.347 300.416L367.525 300.313L389.64 287.545C389.715 287.502 389.791 287.458 389.87 287.413C390.73 286.921 391.825 286.295 392.421 285.464C393.016 284.634 393.01 283.744 393.004 283.045L393.004 283.045C393.004 282.981 393.003 282.918 393.003 282.858L393.003 270.894C393.003 270.833 393.004 270.771 393.004 270.707C393.01 270.007 393.016 269.118 392.421 268.287Z" fill="#304FFE"/>
</g>
</g>
<g clip-path="url(#clip17_616_23654)">
<rect width="125" height="125" rx="20" transform="matrix(0.866025 0.5 -0.866025 0.5 233.824 290)" fill="white"/>
<g clip-path="url(#clip18_616_23654)">
<path fill-rule="evenodd" clip-rule="evenodd" d="M214.881 363.437C225.343 369.478 242.307 369.478 252.769 363.437C263.232 357.397 263.232 347.603 252.769 341.562C242.307 335.522 225.343 335.522 214.881 341.562C204.418 347.603 204.418 357.397 214.881 363.437ZM209.468 366.562C222.92 374.329 244.73 374.329 258.182 366.562C271.634 358.796 271.634 346.204 258.182 338.437C244.73 330.671 222.92 330.671 209.468 338.437C196.016 346.204 196.016 358.796 209.468 366.562ZM225.706 357.187C230.19 359.776 237.46 359.776 241.944 357.187C246.428 354.599 246.428 350.401 241.944 347.812C237.46 345.224 230.19 345.224 225.706 347.812C221.222 350.401 221.222 354.599 225.706 357.187ZM220.293 360.312C227.767 364.627 239.883 364.627 247.357 360.312C254.83 355.998 254.83 349.002 247.357 344.687C239.883 340.373 227.767 340.373 220.293 344.687C212.82 349.002 212.82 355.998 220.293 360.312ZM231.119 354.062C232.613 354.925 235.037 354.925 236.531 354.062C238.026 353.2 238.026 351.8 236.531 350.937C235.037 350.075 232.613 350.075 231.119 350.937C229.624 351.8 229.624 353.2 231.119 354.062Z" fill="#3F51B5"/>
</g>
</g>
<g clip-path="url(#clip19_616_23654)">
<rect width="125" height="125" rx="20" transform="matrix(0.866025 0.5 -0.866025 0.5 610.547 217.5)" fill="white"/>
<g clip-path="url(#clip20_616_23654)">
<path fill-rule="evenodd" clip-rule="evenodd" d="M589.142 280.213C587.18 282.432 585.702 284.817 584.788 287.321C581.658 283.652 581.024 279.452 582.884 275.568L589.142 280.213ZM594.476 284.095C592.942 286.268 591.936 288.598 591.55 291.031C595.849 290.869 599.968 290.322 603.805 289.45C600.447 287.815 597.327 286.024 594.476 284.095ZM611.227 287.23L610.973 287.116C606.268 285.003 602.03 282.564 598.356 279.855C600.843 277.686 603.916 275.761 607.443 274.153C611.434 277.069 616.018 279.698 621.097 281.983C618.331 284.028 614.995 285.804 611.227 287.23ZM610.581 292.539C606.731 293.655 602.589 294.484 598.24 294.977C604.507 296.694 611.629 297.025 618.226 295.972L610.581 292.539ZM626.131 293.923L617.555 290.072C621.161 288.542 624.388 286.731 627.139 284.697L635.328 288.374C634.115 289.568 632.621 290.694 630.846 291.719C629.383 292.564 627.8 293.298 626.131 293.923ZM638.351 284.133C640.005 280.408 639.385 276.417 636.489 272.894C635.508 275.778 633.76 278.504 631.372 280.998L638.351 284.133ZM625.241 278.242C627.73 275.448 629.282 272.332 629.656 269.031C624.003 269.33 618.674 270.273 613.888 271.731C617.246 274.136 621.053 276.32 625.241 278.242ZM609.117 268.199C613.459 266.786 618.205 265.738 623.23 265.127C617.036 263.366 609.972 262.973 603.39 263.948L609.117 268.199ZM596.044 265.694C593.975 266.394 592.026 267.257 590.251 268.281C588.787 269.126 587.515 270.04 586.433 271.004L593.439 276.205C596.098 274.127 599.229 272.263 602.741 270.666L596.044 265.694ZM584.838 294.844C599.038 303.042 622.059 303.042 636.259 294.844C650.458 286.646 650.458 273.354 636.259 265.156C622.059 256.958 599.038 256.958 584.838 265.156C570.639 273.354 570.639 286.646 584.838 294.844Z" fill="#00ACC1"/>
</g>
</g>
<g clip-path="url(#clip21_616_23654)">
<rect width="125" height="125" rx="20" transform="matrix(0.866025 0.5 -0.866025 0.5 484.973 290)" fill="white"/>
<g clip-path="url(#clip22_616_23654)">
<path fill-rule="evenodd" clip-rule="evenodd" d="M484.974 366.373C488.144 366.373 490.715 367.857 490.715 369.687C490.715 371.518 488.144 373.002 484.974 373.002C481.803 373.002 479.233 371.518 479.233 369.688C479.233 367.857 481.803 366.373 484.974 366.373ZM498.369 369.687C498.369 365.416 492.372 361.954 484.974 361.954C477.575 361.954 471.578 365.416 471.578 369.687C471.578 373.959 477.575 377.421 484.974 377.421C492.372 377.421 498.369 373.959 498.369 369.687ZM532.102 352.5C532.102 353.72 530.389 354.71 528.275 354.71L441.672 354.71C439.559 354.71 437.845 353.72 437.845 352.5C437.845 351.28 439.559 350.29 441.672 350.29L528.275 350.29C530.389 350.29 532.102 351.28 532.102 352.5ZM490.715 335.312C490.715 333.482 488.144 331.998 484.974 331.998C481.803 331.998 479.233 333.482 479.233 335.312C479.233 337.143 481.803 338.627 484.974 338.627C488.144 338.627 490.715 337.143 490.715 335.312ZM484.974 327.579C492.372 327.579 498.369 331.041 498.369 335.313C498.369 339.584 492.372 343.046 484.974 343.046C477.575 343.046 471.578 339.584 471.578 335.313C471.578 331.041 477.575 327.579 484.974 327.579Z" fill="#FFAB00"/>
</g>
</g>
<g clip-path="url(#clip23_616_23654)">
<rect width="125" height="125" rx="20" transform="matrix(0.866025 0.5 -0.866025 0.5 359.398 362.5)" fill="white"/>
<g clip-path="url(#clip24_616_23654)">
<path fill-rule="evenodd" clip-rule="evenodd" d="M378.344 435.937C367.881 441.978 350.918 441.978 340.455 435.937C329.992 429.897 329.992 420.103 340.455 414.062C350.918 408.022 367.881 408.022 378.344 414.062C388.806 420.103 388.806 429.897 378.344 435.937ZM383.756 439.062C370.304 446.829 348.494 446.829 335.042 439.062C321.59 431.296 321.59 418.704 335.042 410.937C348.494 403.171 370.304 403.171 383.756 410.937C397.208 418.704 397.208 431.296 383.756 439.062ZM347.454 428.729C347.454 429.41 347.997 430.052 348.926 430.471C349.855 430.89 351.066 431.038 352.21 430.873L379.273 426.967C381.324 426.671 382.57 425.471 382.058 424.287C381.545 423.103 379.467 422.383 377.416 422.679L355.109 425.899L355.109 418.964C355.109 417.743 353.395 416.754 351.281 416.754C349.168 416.754 347.454 417.743 347.454 418.964L347.454 428.729Z" fill="#29B6F6"/>
</g>
</g>
<g clip-path="url(#clip25_616_23654)">
<rect width="125" height="125" rx="20" transform="matrix(0.866025 0.5 -0.866025 0.5 736.121 290)" fill="white"/>
<g clip-path="url(#clip26_616_23654)">
<path fill-rule="evenodd" clip-rule="evenodd" d="M768.215 355.842C769.397 350.435 760.299 346.204 751.4 348.022C746.729 348.976 742.228 346.378 743.881 343.681C747.03 338.543 739.701 333.29 730.335 333.972L728.419 334.112C720.186 334.712 714.094 338.829 714.353 343.617L715.479 364.419L751.509 365.069C759.803 365.219 766.934 361.702 767.973 356.949L768.215 355.842ZM713.909 364.38C713.91 364.38 713.911 364.38 713.913 364.38C713.911 364.38 713.909 364.38 713.909 364.38ZM751.932 343.373C765.135 341.929 777.568 348.35 775.809 356.396L775.567 357.502C774.034 364.517 763.511 369.708 751.27 369.487L714.778 368.828C714.744 368.828 714.709 368.827 714.673 368.826C714.14 368.817 713.497 368.806 712.934 368.763C712.269 368.713 711.339 368.599 710.421 368.242C709.803 368.003 709.272 367.696 708.857 367.34C708.24 366.809 708.042 366.273 707.955 365.889C707.882 365.564 707.862 365.193 707.846 364.885C707.845 364.864 707.844 364.844 707.843 364.824L706.702 343.755C706.32 336.688 715.31 330.613 727.46 329.727L729.376 329.588C743.311 328.572 754.434 335.751 751.932 343.373Z" fill="#29B6F6"/>
</g>
</g>
<g clip-path="url(#clip27_616_23654)">
<rect width="125" height="125" rx="20" transform="matrix(0.866025 0.5 -0.866025 0.5 610.547 362.5)" fill="white"/>
<g clip-path="url(#clip28_616_23654)">
<path fill-rule="evenodd" clip-rule="evenodd" d="M618.67 408.313L640.321 420.812C643.31 422.538 643.31 425.337 640.321 427.062L613.258 442.688C610.268 444.413 605.422 444.413 602.432 442.688L580.782 430.188C577.793 428.462 577.793 425.663 580.782 423.938L607.845 408.312C610.834 406.587 615.681 406.587 618.67 408.313ZM602.432 405.187C608.411 401.736 618.104 401.736 624.083 405.188L645.734 417.687C651.712 421.139 651.712 426.736 645.734 430.187L618.67 445.813C612.692 449.264 602.998 449.264 597.02 445.813L575.369 433.313C569.391 429.861 569.391 424.264 575.369 420.813L602.432 405.187ZM614.614 412.219C613.119 411.356 610.696 411.356 609.201 412.219C607.707 413.082 607.707 414.481 609.201 415.344L617.32 420.031C618.815 420.894 621.238 420.894 622.733 420.031C624.228 419.168 624.228 417.769 622.733 416.906L614.614 412.219ZM598.374 418.469C599.868 417.606 602.292 417.606 603.786 418.469L622.731 429.406C624.225 430.269 624.225 431.668 622.731 432.531C621.236 433.394 618.813 433.394 617.318 432.531L598.374 421.594C596.879 420.731 596.879 419.332 598.374 418.469ZM592.959 424.719C591.464 423.856 589.041 423.856 587.546 424.719C586.052 425.582 586.052 426.981 587.546 427.844L606.49 438.781C607.985 439.644 610.408 439.644 611.903 438.781C613.398 437.918 613.398 436.519 611.903 435.656L592.959 424.719Z" fill="#3F51B5"/>
</g>
</g>
<g clip-path="url(#clip29_616_23654)">
<rect width="125" height="125" rx="20" transform="matrix(0.866025 0.5 -0.866025 0.5 484.973 435)" fill="white"/>
<g clip-path="url(#clip30_616_23654)">
<path fill-rule="evenodd" clip-rule="evenodd" d="M516.63 498.845L500.22 505.861C491.232 509.703 479.894 511.087 469.128 509.773L507.353 487.704L516.63 498.845ZM501.938 484.581L463.96 506.507C462.262 500.745 464.472 494.77 470.28 489.879L482.863 479.286L501.938 484.581ZM476.55 476.786C478.687 474.988 482.776 474.358 486.18 475.303L506.495 480.942C509.627 481.811 512.153 483.27 513.659 485.078L523.529 496.93C525.12 498.841 524.137 501.135 521.185 502.397L504.775 509.413C492.165 514.803 475.693 516.153 460.983 513C459.669 512.718 458.644 512.107 458.197 511.34C453.501 503.276 455.634 494.396 463.967 487.38L476.55 476.786Z" fill="#00838F"/>
</g>
</g>
<defs>
<clipPath id="clip0_616_23654">
<rect width="125" height="125" rx="20" transform="matrix(0.866025 0.5 -0.866025 0.5 484.973 0)" fill="white"/>
</clipPath>
<clipPath id="clip1_616_23654">
<rect width="75" height="75" fill="white" transform="matrix(0.866025 0.5 -0.866025 0.5 484.973 25)"/>
</clipPath>
<clipPath id="clip2_616_23654">
<rect width="125" height="125" rx="20" transform="matrix(0.866025 0.5 -0.866025 0.5 610.547 72.5)" fill="white"/>
</clipPath>
<clipPath id="clip3_616_23654">
<rect width="75" height="75" fill="white" transform="matrix(0.866025 0.5 -0.866025 0.5 610.547 97.5)"/>
</clipPath>
<clipPath id="clip4_616_23654">
<rect width="125" height="125" rx="20" transform="matrix(0.866025 0.5 -0.866025 0.5 736.121 145)" fill="white"/>
</clipPath>
<clipPath id="clip5_616_23654">
<rect width="75" height="75" fill="white" transform="matrix(0.866025 0.5 -0.866025 0.5 736.121 170)"/>
</clipPath>
<clipPath id="clip6_616_23654">
<rect width="125" height="125" rx="20" transform="matrix(0.866025 0.5 -0.866025 0.5 861.695 217.5)" fill="white"/>
</clipPath>
<clipPath id="clip7_616_23654">
<rect width="75" height="75" fill="white" transform="matrix(0.866025 0.5 -0.866025 0.5 861.695 242.5)"/>
</clipPath>
<clipPath id="clip8_616_23654">
<rect width="125" height="125" rx="20" transform="matrix(0.866025 0.5 -0.866025 0.5 359.398 72.5)" fill="white"/>
</clipPath>
<clipPath id="clip9_616_23654">
<rect width="75" height="75" fill="white" transform="matrix(0.866025 0.5 -0.866025 0.5 359.398 97.5)"/>
</clipPath>
<clipPath id="clip10_616_23654">
<rect width="125" height="125" rx="20" transform="matrix(0.866025 0.5 -0.866025 0.5 233.824 145)" fill="white"/>
</clipPath>
<clipPath id="clip11_616_23654">
<rect width="75" height="75" fill="white" transform="matrix(0.866025 0.5 -0.866025 0.5 233.824 170)"/>
</clipPath>
<clipPath id="clip12_616_23654">
<rect width="125" height="125" rx="20" transform="matrix(0.866025 0.5 -0.866025 0.5 108.25 217.5)" fill="white"/>
</clipPath>
<clipPath id="clip13_616_23654">
<rect width="75" height="75" fill="white" transform="matrix(0.866025 0.5 -0.866025 0.5 108.25 242.5)"/>
</clipPath>
<clipPath id="clip14_616_23654">
<rect width="125" height="125" rx="20" transform="matrix(0.866025 0.5 -0.866025 0.5 484.973 145)" fill="white"/>
</clipPath>
<clipPath id="clip15_616_23654">
<rect width="125" height="125" rx="20" transform="matrix(0.866025 0.5 -0.866025 0.5 359.398 217.5)" fill="white"/>
</clipPath>
<clipPath id="clip16_616_23654">
<rect width="75" height="75" fill="white" transform="matrix(0.866025 0.5 -0.866025 0.5 359.398 242.5)"/>
</clipPath>
<clipPath id="clip17_616_23654">
<rect width="125" height="125" rx="20" transform="matrix(0.866025 0.5 -0.866025 0.5 233.824 290)" fill="white"/>
</clipPath>
<clipPath id="clip18_616_23654">
<rect width="75" height="75" fill="white" transform="matrix(0.866025 0.5 -0.866025 0.5 233.824 315)"/>
</clipPath>
<clipPath id="clip19_616_23654">
<rect width="125" height="125" rx="20" transform="matrix(0.866025 0.5 -0.866025 0.5 610.547 217.5)" fill="white"/>
</clipPath>
<clipPath id="clip20_616_23654">
<rect width="75" height="75" fill="white" transform="matrix(0.866025 0.5 -0.866025 0.5 610.547 242.5)"/>
</clipPath>
<clipPath id="clip21_616_23654">
<rect width="125" height="125" rx="20" transform="matrix(0.866025 0.5 -0.866025 0.5 484.973 290)" fill="white"/>
</clipPath>
<clipPath id="clip22_616_23654">
<rect width="75" height="75" fill="white" transform="matrix(0.866025 0.5 -0.866025 0.5 484.973 315)"/>
</clipPath>
<clipPath id="clip23_616_23654">
<rect width="125" height="125" rx="20" transform="matrix(0.866025 0.5 -0.866025 0.5 359.398 362.5)" fill="white"/>
</clipPath>
<clipPath id="clip24_616_23654">
<rect width="75" height="75" fill="white" transform="matrix(0.866025 0.5 -0.866025 0.5 359.398 387.5)"/>
</clipPath>
<clipPath id="clip25_616_23654">
<rect width="125" height="125" rx="20" transform="matrix(0.866025 0.5 -0.866025 0.5 736.121 290)" fill="white"/>
</clipPath>
<clipPath id="clip26_616_23654">
<rect width="75" height="75" fill="white" transform="matrix(0.866025 0.5 -0.866025 0.5 736.121 315)"/>
</clipPath>
<clipPath id="clip27_616_23654">
<rect width="125" height="125" rx="20" transform="matrix(0.866025 0.5 -0.866025 0.5 610.547 362.5)" fill="white"/>
</clipPath>
<clipPath id="clip28_616_23654">
<rect width="75" height="75" fill="white" transform="matrix(0.866025 0.5 -0.866025 0.5 610.547 387.5)"/>
</clipPath>
<clipPath id="clip29_616_23654">
<rect width="125" height="125" rx="20" transform="matrix(0.866025 0.5 -0.866025 0.5 484.973 435)" fill="white"/>
</clipPath>
<clipPath id="clip30_616_23654">
<rect width="75" height="75" fill="white" transform="matrix(0.866025 0.5 -0.866025 0.5 484.973 460)"/>
</clipPath>
</defs>
</svg>
