<svg width="158" height="36" viewBox="0 0 158 36" fill="none" xmlns="http://www.w3.org/2000/svg">
<g clip-path="url(#clip0_87_6066)">
<path d="M91.4892 17.9029C91.0068 16.7027 90.2298 15.6403 89.2283 14.8114C87.3323 13.3656 85.0055 12.5814 82.6112 12.5814C80.217 12.5814 77.8902 13.3656 75.9942 14.8114C75.8799 14.9153 75.7809 15.0215 75.6736 15.1277C75.5647 15.0215 75.4649 14.9153 75.3469 14.8114C73.5002 13.2855 71.147 12.491 68.7424 12.5814C66.3305 12.4892 63.9696 13.2836 62.115 14.8114C61.1261 15.6423 60.3637 16.7052 59.8975 17.9029C59.4257 19.3763 59.2014 20.9162 59.2335 22.4614V35.1768H60.8799C61.3386 35.1775 61.7929 35.0888 62.2169 34.9157C62.6409 34.7427 63.0263 34.4887 63.351 34.1683C63.6758 33.848 63.9335 33.4674 64.1095 33.0485C64.2854 32.6296 64.3763 32.1805 64.3767 31.7269V22.5706C64.3767 18.9316 65.8319 17.1129 68.7424 17.1144C71.6536 17.1144 73.1086 18.9331 73.1073 22.5706V35.1768H74.7537C75.2124 35.1776 75.6668 35.0889 76.0909 34.9159C76.515 34.7429 76.9005 34.4889 77.2253 34.1686C77.5501 33.8482 77.8079 33.4676 77.9839 33.0487C78.16 32.6297 78.2508 32.1805 78.2513 31.7269V30.6733H78.2566V22.5706C78.2566 18.9316 79.7116 17.1129 82.6215 17.1144C85.5312 17.1144 86.9862 18.9331 86.9865 22.5706V35.1768H88.6336C89.0923 35.1775 89.5466 35.0888 89.9706 34.9157C90.3946 34.7427 90.78 34.4887 91.1048 34.1683C91.4295 33.848 91.6872 33.4674 91.8632 33.0485C92.0392 32.6296 92.13 32.1805 92.1304 31.7269V22.4612C92.2032 20.9155 91.9858 19.3702 91.4892 17.9029Z" fill="white"/>
<path d="M53.9171 12.5814C53.4584 12.5806 53.0041 12.6693 52.58 12.8422C52.156 13.0152 51.7705 13.269 51.4457 13.5894C51.1209 13.9097 50.8631 14.2901 50.687 14.709C50.511 15.1279 50.4201 15.577 50.4195 16.0306V25.1869C50.4195 28.8259 48.9646 30.6446 46.0546 30.6431C43.1449 30.6431 41.6897 28.8244 41.6889 25.1869V22.4621C41.7624 20.9163 41.5455 19.3705 41.0492 17.9028C40.5655 16.703 39.7881 15.6408 38.7868 14.8113C36.9393 13.2859 34.5858 12.4914 32.1808 12.5814C29.7687 12.4894 27.4076 13.2838 25.5527 14.8113C24.565 15.6433 23.8031 16.7059 23.3359 17.9028C22.8645 19.3766 22.6402 20.9167 22.6719 22.4621V35.1768H24.53C25.4005 35.1779 26.2358 34.8369 26.8522 34.2289C27.4685 33.6209 27.8155 32.7956 27.8166 31.9347V22.5713C27.8166 18.9313 29.2713 17.1126 32.1808 17.1151C35.0844 17.1151 36.5394 18.9245 36.5457 22.5435V25.2961C36.5128 26.8416 36.7371 28.3819 37.2097 29.8554C37.6755 31.0526 38.4374 32.1152 39.4257 32.9461C41.2805 34.4746 43.6421 35.2693 46.0546 35.1768C48.4597 35.2663 50.8131 34.4717 52.6606 32.9461C53.6617 32.1171 54.4386 31.055 54.9215 29.8554C55.4179 28.3877 55.6356 26.842 55.5635 25.2961V12.5814H53.9171Z" fill="white"/>
<path d="M16.7189 12.5664C16.3457 12.566 15.976 12.6383 15.631 12.7793C15.2861 12.9202 14.9726 13.127 14.7084 13.3878C14.4443 13.6486 14.2347 13.9583 14.0917 14.2992C13.9486 14.6401 13.8749 15.0056 13.8747 15.3747V25.1884C13.8747 28.8274 12.4185 30.6462 9.50596 30.6447C6.59701 30.6447 5.14204 28.8259 5.14102 25.1884V15.389C5.14062 15.0201 5.06673 14.6548 4.92357 14.3141C4.78041 13.9734 4.57078 13.6639 4.30666 13.4033C4.04254 13.1428 3.72911 12.9362 3.38425 12.7954C3.0394 12.6547 2.66988 12.5825 2.29681 12.583H0.000115104V25.2976C-0.0727773 26.8431 0.143829 28.3886 0.639016 29.8562C1.12259 31.0561 1.90002 32.1184 2.90144 32.9477C4.74838 34.4732 7.1013 35.2679 9.50596 35.1784C11.9185 35.271 14.2801 34.4763 16.1348 32.9477C17.1242 32.1172 17.8867 31.0541 18.3523 29.8562C18.825 28.383 19.0494 26.8429 19.0164 25.2976V12.5664H16.7189Z" fill="white"/>
<path d="M49.6683 3.44773C49.6639 3.01843 49.749 2.59284 49.9182 2.19751C50.0875 1.80219 50.3374 1.4456 50.6522 1.15C50.9621 0.841866 51.3305 0.597342 51.7363 0.430487C52.1421 0.263631 52.5772 0.177734 53.0166 0.177734C53.4561 0.177734 53.8912 0.263631 54.297 0.430487C54.7028 0.597342 55.0712 0.841866 55.3811 1.15C55.7 1.44737 55.9524 1.80743 56.1222 2.20703C56.2919 2.60664 56.3753 3.03696 56.3668 3.47032C56.3736 3.90744 56.2897 4.3413 56.1202 4.74506C55.9507 5.14882 55.6993 5.51391 55.3814 5.81775C55.0785 6.13137 54.713 6.37928 54.3081 6.54575C53.9031 6.71222 53.4676 6.7936 53.0291 6.78473C52.5873 6.79235 52.1485 6.7105 51.7397 6.5442C51.331 6.37791 50.961 6.13069 50.6525 5.81775C50.333 5.51045 50.0809 5.1415 49.9116 4.7338C49.7424 4.32611 49.6594 3.88836 49.6683 3.44773Z" fill="white"/>
<path d="M155.181 12.582C154.722 12.5813 154.267 12.6699 153.843 12.8429C153.419 13.0158 153.034 13.2697 152.709 13.59C152.384 13.9103 152.127 14.2908 151.95 14.7097C151.774 15.1285 151.683 15.5776 151.683 16.0313V25.1875C151.683 28.8265 150.228 30.6453 147.318 30.6437C144.408 30.6437 142.954 28.825 142.955 25.1875V22.4628C143.027 20.9168 142.809 19.371 142.313 17.9035C141.829 16.7034 141.052 15.641 140.05 14.812C138.154 13.3662 135.828 12.582 133.434 12.582C131.039 12.582 128.713 13.3662 126.817 14.812C125.828 15.6429 125.066 16.7059 124.601 17.9035C124.128 19.3769 123.904 20.9173 123.937 22.4628V35.1774H125.583C126.509 35.1787 127.398 34.816 128.054 34.1692C128.71 33.5223 129.079 32.6443 129.081 31.7282V22.572C129.081 18.932 130.536 17.1132 133.446 17.1157C136.349 17.1157 137.804 18.9252 137.811 22.5441V25.2967C137.777 26.842 138.001 28.3823 138.472 29.856C138.938 31.0534 139.7 32.1161 140.689 32.9467C142.585 34.393 144.912 35.1774 147.307 35.1774C149.701 35.1774 152.028 34.393 153.924 32.9467C154.925 32.118 155.703 31.0558 156.186 29.856C156.682 28.3884 156.899 26.8425 156.825 25.2967V12.582H155.181Z" fill="white"/>
<path d="M150.933 3.44773C150.929 3.01858 151.014 2.59314 151.183 2.19785C151.352 1.80256 151.601 1.44589 151.916 1.15001C152.226 0.841854 152.594 0.59733 153 0.430479C153.406 0.263627 153.842 0.177734 154.281 0.177734C154.721 0.177734 155.156 0.263627 155.562 0.430479C155.968 0.59733 156.337 0.841854 156.647 1.15001C156.965 1.44784 157.217 1.80804 157.386 2.20758C157.555 2.60712 157.638 3.0372 157.63 3.47032C157.637 3.90723 157.553 4.34086 157.384 4.74456C157.215 5.14826 156.964 5.51348 156.647 5.81775C156.344 6.1311 155.978 6.37882 155.573 6.54526C155.168 6.71171 154.732 6.79325 154.294 6.78473C153.852 6.7925 153.413 6.71072 153.004 6.54443C152.595 6.37813 152.224 6.13083 151.916 5.81775C151.597 5.51016 151.345 5.14113 151.176 4.73347C151.007 4.32582 150.924 3.88821 150.933 3.44773Z" fill="white"/>
<path d="M96.1612 23.4067C96.1369 21.8942 96.4312 20.3931 97.0252 18.9991C97.6192 17.6051 98.5 16.3485 99.6116 15.3094C101.886 13.1649 104.908 11.9704 108.051 11.9746C111.193 11.9788 114.212 13.1814 116.48 15.3319C117.594 16.4011 118.474 17.6858 119.063 19.1059C119.653 20.5261 119.941 22.0511 119.908 23.586C119.944 25.127 119.656 26.6587 119.062 28.0838C118.467 29.5089 117.58 30.7962 116.456 31.8641C115.329 32.95 113.995 33.8023 112.531 34.3712C111.067 34.9401 109.502 35.2141 107.929 35.177C106.371 35.2151 104.822 34.9342 103.379 34.352C101.935 33.7699 100.629 32.899 99.5423 31.7941C98.4288 30.6989 97.5543 29.3896 96.9727 27.947C96.3912 26.5044 96.115 24.9591 96.1612 23.4067ZM101.418 23.4933C101.313 25.3929 101.951 27.2596 103.201 28.7056C104.492 29.9447 106.22 30.6395 108.019 30.6433C109.818 30.6471 111.548 29.9596 112.844 28.7259C114.097 27.3176 114.745 25.4813 114.65 23.6078C114.744 21.7345 114.096 19.8985 112.844 18.4897C111.563 17.2467 109.839 16.5504 108.044 16.5504C106.25 16.5504 104.526 17.2467 103.245 18.4897C101.999 19.8579 101.343 21.6536 101.418 23.4933Z" fill="white"/>
<path d="M41.6897 25.187V22.4614C41.7631 20.9158 41.5462 19.3702 41.05 17.9028C40.5664 16.7027 39.7887 15.6404 38.7868 14.8113C36.9394 13.2857 34.5859 12.4913 32.1808 12.5814C29.769 12.4895 27.4081 13.2838 25.5534 14.8113C24.5652 15.6429 23.8029 16.7056 23.3359 17.9028C22.8645 19.3763 22.6401 20.9162 22.6719 22.4614C22.6719 22.4614 25.1041 17.1143 32.1808 17.1143C35.0852 17.1143 36.5401 18.9238 36.5457 22.5427V25.2961C36.513 26.8413 36.7376 28.3814 37.2105 29.8546C37.676 31.052 38.4376 32.1149 39.4257 32.9461C41.2808 34.4741 43.6422 35.2687 46.0546 35.1768C41.6897 33.1728 41.6897 28.826 41.6897 25.187Z" fill="#00A7E0"/>
</g>
<defs>
<clipPath id="clip0_87_6066">
<rect width="157.63" height="35" fill="white" transform="translate(0 0.177734)"/>
</clipPath>
</defs>
</svg>
