<svg width="1342" height="407" viewBox="0 0 1342 407" fill="none" xmlns="http://www.w3.org/2000/svg">
<g clip-path="url(#clip0_9_2)">
<path d="M1211.2 161.393C1211.2 195.426 1224.65 212.444 1251.54 212.447C1278.44 212.451 1291.89 195.433 1291.89 161.393V141.453C1291.89 134.48 1294.67 127.795 1299.6 122.868C1304.53 117.94 1311.22 115.174 1318.2 115.178H1339.42V162.452C1340.09 176.9 1338.08 191.348 1333.49 205.063C1329.03 216.285 1321.85 226.219 1312.59 233.966C1295.08 247.505 1273.57 254.85 1251.44 254.85C1229.31 254.85 1207.8 247.505 1190.29 233.966" fill="white"/>
<path d="M905.078 161.393C905.078 195.426 918.525 212.444 945.42 212.447C972.315 212.451 985.762 195.433 985.762 161.393V141.453C985.763 138.001 986.444 134.583 987.767 131.395C989.089 128.206 991.027 125.309 993.469 122.869C995.911 120.429 998.81 118.494 1002 117.174C1005.19 115.855 1008.61 115.176 1012.06 115.178H1033.29V162.452C1033.96 176.9 1031.95 191.347 1027.36 205.063C1022.91 216.285 1015.72 226.219 1006.46 233.966C988.956 247.505 967.449 254.85 945.316 254.85C923.183 254.85 901.676 247.505 884.169 233.966" fill="white"/>
<path d="M1175.03 239.831C1175.03 266.771 1158.04 280.24 1124.06 280.24H1104.16C1097.19 280.256 1090.51 283.041 1085.59 287.982C1080.67 292.923 1077.91 299.616 1077.92 306.588V327.847H1125.11C1139.54 328.521 1153.97 326.511 1167.66 321.917C1178.87 317.444 1188.79 310.244 1196.51 300.97C1210.78 283.866 1218.2 262.086 1217.36 239.831C1218.23 217.506 1210.8 195.649 1196.51 178.475" fill="white"/>
<path d="M1027.43 53.1683C1024.58 56.1015 1021.16 58.4203 1017.38 59.9814C1013.6 61.5425 1009.55 62.3129 1005.46 62.2451C1001.4 62.3248 997.373 61.5589 993.628 59.9961C989.884 58.4334 986.506 56.1081 983.709 53.1683C980.774 50.3281 978.454 46.9161 976.891 43.1434C975.327 39.3708 974.555 35.3176 974.621 31.2345C974.543 27.1789 975.311 23.1517 976.876 19.4093C978.44 15.6669 980.768 12.2914 983.709 9.49796C986.577 6.62394 989.985 4.3438 993.735 2.78805C997.486 1.23231 1001.51 0.431519 1005.57 0.431519C1009.63 0.431519 1013.65 1.23231 1017.4 2.78805C1021.15 4.3438 1024.56 6.62394 1027.43 9.49796C1030.33 12.2741 1032.63 15.6158 1034.2 19.3169C1035.76 23.0179 1036.54 26.9997 1036.51 31.0164C1036.59 35.1332 1035.82 39.2232 1034.26 43.0334C1032.7 46.8436 1030.37 50.293 1027.43 53.1683Z" fill="white"/>
<path d="M1332.77 317.558C1329.92 320.491 1326.5 322.81 1322.73 324.371C1318.95 325.932 1314.89 326.703 1310.8 326.635C1306.74 326.715 1302.72 325.949 1298.97 324.386C1295.23 322.823 1291.85 320.498 1289.05 317.558C1286.12 314.717 1283.8 311.305 1282.23 307.533C1280.67 303.76 1279.9 299.707 1279.96 295.624C1279.89 291.569 1280.65 287.542 1282.22 283.799C1283.78 280.057 1286.11 276.681 1289.05 273.888C1291.92 271.014 1295.33 268.734 1299.08 267.178C1302.83 265.622 1306.85 264.821 1310.91 264.821C1314.97 264.821 1318.99 265.622 1322.74 267.178C1326.49 268.734 1329.9 271.014 1332.77 273.888C1335.67 276.664 1337.98 280.006 1339.54 283.707C1341.1 287.408 1341.89 291.39 1341.85 295.406C1341.93 299.523 1341.17 303.613 1339.6 307.423C1338.04 311.233 1335.72 314.682 1332.77 317.558Z" fill="white"/>
<path d="M1266.31 317.558C1263.47 320.492 1260.05 322.811 1256.27 324.373C1252.49 325.934 1248.43 326.704 1244.34 326.635C1240.29 326.714 1236.26 325.949 1232.51 324.386C1228.77 322.823 1225.39 320.498 1222.59 317.558C1219.66 314.717 1217.34 311.305 1215.78 307.533C1214.21 303.76 1213.44 299.707 1213.5 295.624C1213.43 291.569 1214.19 287.542 1215.76 283.799C1217.32 280.057 1219.65 276.681 1222.59 273.888C1225.46 271.014 1228.87 268.734 1232.62 267.178C1236.37 265.622 1240.39 264.821 1244.45 264.821C1248.51 264.821 1252.53 265.622 1256.29 267.178C1260.04 268.734 1263.44 271.014 1266.31 273.888C1269.22 276.664 1271.52 280.005 1273.08 283.706C1274.65 287.407 1275.44 291.389 1275.4 295.406C1275.48 299.524 1274.71 303.613 1273.15 307.423C1271.59 311.233 1269.26 314.683 1266.31 317.558Z" fill="white"/>
<path d="M865.204 397.923C862.357 400.857 858.939 403.176 855.16 404.737C851.381 406.299 847.323 407.069 843.235 407C839.178 407.079 835.149 406.313 831.404 404.75C827.66 403.188 824.282 400.863 821.485 397.923C818.55 395.083 816.23 391.671 814.666 387.898C813.103 384.125 812.331 380.072 812.396 375.989C812.319 371.934 813.087 367.906 814.651 364.164C816.216 360.421 818.543 357.046 821.485 354.253C824.353 351.379 827.761 349.098 831.512 347.543C835.263 345.987 839.284 345.186 843.344 345.186C847.405 345.186 851.426 345.987 855.177 347.543C858.928 349.098 862.335 351.379 865.204 354.253C868.11 357.03 870.415 360.373 871.978 364.076C873.541 367.779 874.329 371.762 874.292 375.781C874.372 379.897 873.606 383.985 872.043 387.794C870.48 391.602 868.152 395.049 865.204 397.923Z" fill="white"/>
<path d="M798.755 397.923C795.907 400.856 792.489 403.175 788.71 404.736C784.932 406.297 780.873 407.068 776.786 407C772.729 407.08 768.699 406.315 764.954 404.752C761.21 403.189 757.832 400.863 755.036 397.923C752.101 395.083 749.78 391.671 748.217 387.898C746.654 384.125 745.881 380.072 745.947 375.989C745.87 371.934 746.637 367.906 748.202 364.164C749.767 360.421 752.094 357.046 755.036 354.253C757.904 351.379 761.311 349.098 765.062 347.543C768.813 345.987 772.834 345.186 776.895 345.186C780.956 345.186 784.977 345.987 788.728 347.543C792.479 349.098 795.886 351.379 798.755 354.253C801.659 357.03 803.963 360.374 805.524 364.077C807.085 367.78 807.87 371.763 807.832 375.781C807.913 379.896 807.15 383.984 805.588 387.793C804.027 391.601 801.701 395.049 798.755 397.923Z" fill="white"/>
<path d="M140.249 397.923C137.402 400.856 133.983 403.175 130.205 404.736C126.427 406.297 122.368 407.067 118.281 407C114.224 407.079 110.195 406.313 106.45 404.751C102.705 403.188 99.3273 400.863 96.5308 397.923C93.5963 395.083 91.2756 391.671 89.7124 387.898C88.1491 384.125 87.3765 380.072 87.4424 375.989C87.3646 371.933 88.1326 367.906 89.6973 364.164C91.2621 360.421 93.5894 357.046 96.5308 354.252C99.3992 351.378 102.806 349.098 106.557 347.543C110.308 345.987 114.329 345.186 118.39 345.186C122.451 345.186 126.472 345.987 130.222 347.543C133.973 349.098 137.38 351.378 140.249 354.252C143.153 357.03 145.457 360.374 147.019 364.076C148.58 367.779 149.366 371.763 149.327 375.781C149.408 379.896 148.645 383.985 147.083 387.793C145.522 391.601 143.196 395.049 140.249 397.923Z" fill="white"/>
<path d="M73.7898 397.923C70.9437 400.858 67.5257 403.178 63.7471 404.739C59.9685 406.3 55.9097 407.07 51.8218 407C47.7648 407.079 43.7357 406.314 39.9911 404.751C36.2464 403.188 32.8683 400.863 30.0718 397.923C27.1373 395.083 24.8166 391.671 23.2534 387.898C21.6901 384.125 20.9176 380.072 20.9834 375.989C20.9056 371.934 21.6736 367.906 23.2384 364.164C24.8031 360.422 27.1304 357.046 30.0718 354.253C32.9211 351.323 36.34 349.007 40.118 347.448C43.8961 345.888 47.9532 345.119 52.0399 345.186C56.0922 345.133 60.1126 345.91 63.8533 347.469C67.5939 349.028 70.9755 351.337 73.7898 354.253C76.6956 357.03 79.0013 360.373 80.5644 364.076C82.1276 367.779 82.9151 371.762 82.8783 375.781C82.9579 379.897 82.1924 383.986 80.6292 387.794C79.066 391.602 76.7382 395.05 73.7898 397.923Z" fill="white"/>
<path d="M916.378 245.738C889.549 245.738 897.993 199.202 897.931 233.058V235.436C898.224 249.879 896.154 264.272 891.802 278.047C887.504 289.25 880.457 299.193 871.309 306.96C853.802 320.499 832.295 327.845 810.162 327.845C788.029 327.845 766.523 320.499 749.015 306.96C739.752 299.208 732.566 289.272 728.107 278.047C723.525 264.329 721.522 249.883 722.197 235.436V116.451H737.403C745.968 116.449 754.184 119.847 760.244 125.9C766.304 131.953 769.711 140.165 769.716 148.729V234.377C769.716 268.42 783.164 285.441 810.059 285.441C836.953 285.441 850.401 268.42 850.401 234.377V227.128L850.39 232.269C849.719 217.818 851.726 203.368 856.311 189.647C860.776 178.429 867.961 168.496 877.219 160.745C893.267 146.828 891.74 203.335 916.378 203.335" fill="white"/>
<path d="M850.384 235.48V163.156C850.39 155.926 853.268 148.995 858.385 143.887C863.501 138.778 870.438 135.911 877.669 135.916H878.022C881.603 135.912 885.149 136.614 888.458 137.982C891.768 139.349 894.775 141.355 897.309 143.884C899.843 146.414 901.853 149.418 903.226 152.725C904.598 156.031 905.306 159.576 905.308 163.156V235.48H850.384Z" fill="#264A9D"/>
<path d="M182.881 161.393C182.881 195.426 196.329 212.444 223.224 212.447C250.119 212.451 263.566 195.433 263.565 161.393V141.453C263.566 138.001 264.247 134.583 265.57 131.394C266.892 128.206 268.83 125.308 271.272 122.869C273.714 120.429 276.613 118.494 279.804 117.174C282.994 115.855 286.413 115.176 289.865 115.178H311.084V162.452C311.756 176.899 309.749 191.346 305.164 205.063C300.71 216.287 293.523 226.222 284.255 233.966C267.203 248.249 245.453 255.691 223.224 254.85C200.921 255.715 179.091 248.273 161.962 233.966" fill="white"/>
<path d="M305.23 53.1683C302.383 56.1016 298.964 58.4204 295.186 59.9815C291.407 61.5427 287.349 62.313 283.261 62.2451C279.203 62.3249 275.172 61.5591 271.426 59.9964C267.68 58.4337 264.3 56.1084 261.502 53.1683C258.57 50.3263 256.252 46.9138 254.691 43.1414C253.129 39.369 252.357 35.3167 252.423 31.2345C252.345 27.1799 253.113 23.1535 254.676 19.4114C256.239 15.6693 258.563 12.2933 261.502 9.49798C264.371 6.62389 267.779 4.34375 271.531 2.78802C275.283 1.23229 279.305 0.431519 283.366 0.431519C287.428 0.431519 291.449 1.23229 295.201 2.78802C298.953 4.34375 302.361 6.62389 305.23 9.49798C308.131 12.276 310.433 15.6182 311.993 19.3188C313.554 23.0195 314.34 27.0004 314.304 31.0164C314.384 35.1328 313.621 39.2221 312.059 43.032C310.498 46.8418 308.176 50.2915 305.23 53.1683Z" fill="white"/>
<path d="M194.181 245.738C167.352 245.738 175.797 199.202 175.734 233.058V235.436C176.028 249.879 173.958 264.272 169.606 278.047C165.308 289.25 158.26 299.193 149.113 306.96C131.986 321.264 110.161 328.706 87.862 327.845C65.6294 328.684 43.8767 321.241 26.8188 306.96C17.5554 299.208 10.3695 289.272 5.91019 278.047C1.32375 264.331 -0.680129 249.883 0.000107301 235.436V116.451H15.2064C23.7727 116.449 31.9894 119.848 38.0492 125.902C44.109 131.956 47.5155 140.169 47.5197 148.734V234.382C47.5197 268.425 60.9671 285.447 87.862 285.447C114.757 285.447 128.201 268.425 128.194 234.382V232.274C127.522 217.823 129.53 203.373 134.114 189.652C138.575 178.434 145.757 168.502 155.013 160.75C171.071 146.834 169.533 203.34 194.181 203.34" fill="white"/>
<path d="M128.188 235.48V163.156C128.191 159.576 128.898 156.031 130.271 152.725C131.644 149.418 133.654 146.414 136.188 143.885C138.722 141.355 141.729 139.349 145.039 137.982C148.348 136.615 151.894 135.912 155.475 135.916H155.828C163.059 135.911 169.995 138.778 175.112 143.886C180.229 148.995 183.107 155.926 183.114 163.156V235.48H128.188Z" fill="white"/>
<path d="M1197.29 234.964C1190.93 241.498 1183.3 246.649 1174.86 250.095C1166.42 253.54 1157.36 255.206 1148.25 254.986C1139.06 255.203 1129.91 253.579 1121.35 250.21C1112.8 246.841 1105 241.795 1098.42 235.369C1091.85 229.048 1086.66 221.431 1083.19 212.999C1079.72 204.568 1078.04 195.507 1078.25 186.391C1078.06 177.312 1079.74 168.29 1083.18 159.889C1086.63 151.487 1091.77 143.886 1098.29 137.56C1111.53 124.823 1129.19 117.697 1147.56 117.672C1165.94 117.647 1183.61 124.724 1196.89 137.425C1203.42 143.457 1208.56 150.839 1211.95 159.059C1215.34 167.278 1216.9 176.138 1216.52 185.021C1216.82 203.531 1209.93 221.436 1197.29 234.964ZM1170.28 162.027C1164.23 156.083 1156.08 152.753 1147.6 152.753C1139.12 152.753 1130.97 156.083 1124.92 162.027C1119.01 168.774 1115.95 177.556 1116.39 186.516C1115.95 195.476 1119.01 204.258 1124.92 211.005C1131.04 216.906 1139.22 220.194 1147.73 220.175C1156.23 220.155 1164.4 216.83 1170.5 210.901C1176.4 203.982 1179.42 195.057 1178.92 185.976C1179.28 177.171 1176.18 168.576 1170.28 162.027Z" fill="white"/>
<path d="M657.3 234.964C650.946 241.498 643.311 246.649 634.873 250.095C626.435 253.541 617.375 255.206 608.263 254.987C599.068 255.201 589.923 253.576 581.365 250.207C572.808 246.838 565.009 241.793 558.428 235.369C551.857 229.047 546.671 221.429 543.199 212.998C539.727 204.567 538.044 195.507 538.257 186.391C538.065 177.313 539.744 168.291 543.192 159.89C546.639 151.489 551.779 143.887 558.293 137.56C571.539 124.823 589.195 117.697 607.572 117.672C625.949 117.646 643.624 124.724 656.904 137.425C663.437 143.457 668.578 150.839 671.968 159.059C675.358 167.278 676.917 176.138 676.535 185.021C676.833 203.53 669.937 221.434 657.3 234.964ZM630.295 162.027C624.243 156.083 616.098 152.753 607.615 152.753C599.132 152.753 590.987 156.083 584.935 162.027C579.016 168.771 575.957 177.555 576.407 186.516C575.957 195.477 579.016 204.261 584.935 211.005C591.06 216.906 599.24 220.194 607.745 220.175C616.251 220.155 624.415 216.83 630.513 210.901C636.416 203.982 639.432 195.057 638.936 185.976C639.294 177.171 636.192 168.576 630.295 162.027Z" fill="white"/>
<path d="M1216.3 174.801C1216.52 176.255 1216.7 196.808 1225.12 203.797C1233.55 210.787 1212.94 211.981 1212.94 211.981L1206.93 199.809L1205.89 188.562L1207.66 177.45L1212.69 174.043C1212.69 174.043 1214.79 164.395 1216.3 174.801Z" fill="white"/>
<path d="M550.669 207.995C544.125 210.376 537.292 211.875 530.351 212.45C503.46 212.45 490.013 195.432 490.009 161.396L469.101 233.969C486.23 248.268 508.053 255.709 530.351 254.853C547.177 255.264 563.811 251.207 578.558 243.097C582.992 240.279 587.277 237.232 591.395 233.969L550.669 207.995Z" fill="white"/>
<path d="M453.84 239.831C453.84 266.771 436.854 280.24 402.883 280.24H382.97C379.518 280.248 376.101 280.936 372.914 282.265C369.727 283.594 366.834 285.537 364.398 287.984C361.963 290.431 360.034 293.334 358.72 296.526C357.407 299.719 356.736 303.139 356.745 306.591V327.85H403.931C418.358 328.525 432.784 326.514 446.476 321.92C457.683 317.444 467.597 310.244 475.32 300.973C489.59 283.87 497.02 262.09 496.177 239.834C497.046 217.508 489.616 195.651 475.32 178.478" fill="white"/>
<path d="M476.098 234.964C469.745 241.498 462.11 246.65 453.671 250.095C445.233 253.541 436.174 255.206 427.062 254.987C417.867 255.202 408.722 253.577 400.164 250.208C391.606 246.839 383.807 241.794 377.227 235.369C370.654 229.048 365.467 221.431 361.994 212.999C358.521 204.568 356.84 195.507 357.055 186.391C356.863 177.313 358.543 168.291 361.99 159.89C365.437 151.489 370.578 143.887 377.092 137.56C390.338 124.823 407.994 117.697 426.371 117.672C444.748 117.647 462.424 124.724 475.704 137.425C482.236 143.457 487.374 150.84 490.763 159.06C494.151 167.279 495.708 176.138 495.325 185.021C495.63 203.53 488.737 221.436 476.098 234.964ZM449.083 162.027C443.033 156.084 434.89 152.753 426.409 152.753C417.927 152.753 409.784 156.084 403.734 162.027C397.812 168.77 394.75 177.554 395.195 186.516C394.75 195.478 397.812 204.262 403.734 211.005C409.857 216.906 418.035 220.194 426.539 220.175C435.043 220.155 443.206 216.83 449.301 210.901C455.205 203.982 458.221 195.057 457.725 185.976C458.082 177.171 454.981 168.576 449.083 162.027Z" fill="white"/>
<path d="M495.114 174.801C495.332 176.255 495.518 196.808 503.942 203.797C512.367 210.787 491.748 211.981 491.748 211.981L485.745 199.809L484.706 188.562L486.472 177.45L491.499 174.043C491.499 174.043 493.596 164.395 495.114 174.801Z" fill="white"/>
<path d="M623.235 253.548C591.768 258.228 559.82 258.71 528.226 254.981C476.833 248.729 519.19 232.954 519.19 232.954L556.115 236.038L610.271 252.032" fill="white"/>
<path d="M945.54 212.604C918.72 212.604 905.273 195.672 905.196 161.809H905.165C904.821 154.825 901.804 148.24 896.738 143.419C891.672 138.597 884.946 135.908 877.952 135.908H877.588C870.357 135.907 863.422 138.777 858.307 143.887C853.192 148.997 850.316 155.93 850.313 163.159V235.483H850.458C850.458 269.318 850.094 309.406 810.116 328.006C832.414 328.864 854.239 321.422 871.367 307.121C880.514 299.358 887.562 289.419 891.86 278.219C895.453 266.968 897.429 255.265 897.728 243.459C912.382 251.421 928.867 255.403 945.54 255.007C967.839 255.874 989.666 248.432 1006.79 234.122C1015.79 226.225 1022.81 216.325 1027.28 205.22C1031.97 191.524 1034.05 177.071 1033.41 162.609C1024.95 178.361 1012.22 191.408 996.672 200.252C981.129 209.095 963.406 213.376 945.54 212.604Z" fill="#00A7E0"/>
</g>
<defs>
<clipPath id="clip0_9_2">
<rect width="1341.85" height="406.568" fill="white" transform="translate(0 0.431641)"/>
</clipPath>
</defs>
</svg>
